<?xml version="1.0" standalone="no"?>
<!DOCTYPE svg PUBLIC "-//W3C//DTD SVG 1.1//EN" "http://www.w3.org/Graphics/SVG/1.1/DTD/svg11.dtd" >
<svg xmlns="http://www.w3.org/2000/svg" xmlns:xlink="http://www.w3.org/1999/xlink" version="1.1">
<metadata>
Created by FontForge 20170731 at Thu Aug 29 15:35:46 1996
 By Aleksey,,,
Copyright (c) 1988, 1990 Adobe Systems Incorporated.  All Rights Reserved.Helvetica is a registered trademark of Linotype AG and/or its subsidiaries.
</metadata>
<defs>
<font id="HelveticaNeueItalic" horiz-adv-x="556" >
  <font-face 
    font-family="HelveticaNeue"
    font-weight="5"
    font-style="italic"
    font-stretch="normal"
    units-per-em="1000"
    panose-1="0 0 0 0 0 0 0 0 0 0"
    ascent="800"
    descent="-200"
    x-height="516"
    cap-height="714"
    bbox="-165 -233 1099 951"
    underline-thickness="50"
    underline-position="-175"
    unicode-range="U+0020-F002"
  />
<missing-glyph horiz-adv-x="789" 
d="M49 0v789h691v-789h-691zM691 49v691h-593v-691h593z" />
    <glyph glyph-name=".notdef" horiz-adv-x="789" 
d="M49 0v789h691v-789h-691zM691 49v691h-593v-691h593z" />
    <glyph glyph-name=".null" horiz-adv-x="0" 
 />
    <glyph glyph-name="nonmarkingreturn" horiz-adv-x="278" 
 />
    <glyph glyph-name="space" unicode=" " horiz-adv-x="278" 
 />
    <glyph glyph-name="exclam" unicode="!" horiz-adv-x="278" 
d="M23 0l23 106h85l-24 -106h-84zM84 178l53 314l48 222h67l-48 -223l-82 -313h-38z" />
    <glyph glyph-name="quotedbl" unicode="&#x22;" horiz-adv-x="370" 
d="M137 714h58v-243h-58v243zM262 714h58v-243h-58v243z" />
    <glyph glyph-name="numbersign" unicode="#" 
d="M487 223h-101l-31 -223h-50l31 223h-141l-31 -223h-50l31 223h-110l10 45h106l22 156h-110l10 45h106l31 222h50l-31 -222h141l31 222h50l-31 -222h105l-10 -45h-101l-22 -156h105zM223 424l-22 -156h141l22 156h-141z" />
    <glyph glyph-name="dollar" unicode="$" 
d="M324 671q-79 0 -134.5 -34.5t-55.5 -108.5q0 -40 23.5 -68t96.5 -50l14 -4zM236 44l15 -1q79 0 141 39t62 114q0 62 -40.5 88.5t-116.5 47.5zM505 506q0 77 -34 114.5t-103 46.5l-58 -274l20 -6q96 -29 144 -65t48 -117q0 -77 -62 -148.5t-214 -71.5l-23 1l-18 -86h-45
l20 91q-96 14 -149.5 75t-53.5 169h68q0 -85 37 -130t110 -56l63 296l-48 14q-67 19 -104 59t-37 107q0 106 78 155t192 49l11 52h45l-12 -56q92 -12 142.5 -64.5t50.5 -154.5h-68z" />
    <glyph glyph-name="percent" unicode="%" horiz-adv-x="833" 
d="M674 723h55l-571 -755h-54zM67 468q0 94 48.5 166t137.5 72q61 0 97.5 -38.5t36.5 -100.5q0 -95 -47.5 -167.5t-137.5 -72.5q-64 0 -99.5 38.5t-35.5 102.5zM334 564q0 44 -20.5 70.5t-63.5 26.5q-62 0 -96 -63.5t-34 -131.5q0 -39 21.5 -66.5t61.5 -27.5q65 0 98 60.5
t33 131.5zM446 126q0 94 48.5 166t137.5 72q61 0 97.5 -38.5t36.5 -100.5q0 -95 -47.5 -167.5t-137.5 -72.5q-64 0 -99.5 38.5t-35.5 102.5zM712 222q0 44 -20.5 70.5t-63.5 26.5q-62 0 -96 -63.5t-34 -131.5q0 -39 21.5 -66.5t61.5 -27.5q65 0 98 60.5t33 131.5z" />
    <glyph glyph-name="ampersand" unicode="&#x26;" horiz-adv-x="611" 
d="M425 572q0 43 -26.5 66t-69.5 23q-44 0 -75.5 -28.5t-31.5 -73.5q0 -31 13 -58.5t43 -80.5q69 38 108 70.5t39 81.5zM255 351q-83 -40 -129 -80t-46 -107q0 -52 39 -89t94 -37q107 0 183 92zM552 315q-12 -54 -32 -99t-53 -88l83 -128h-71l-54 84q-39 -48 -92 -73.5
t-115 -25.5q-90 0 -145.5 48t-55.5 135q0 83 54 131t156 96q-35 52 -51.5 87t-16.5 79q0 68 49.5 110.5t122.5 42.5q64 0 110.5 -34.5t46.5 -95.5q0 -69 -47.5 -113.5t-134.5 -92.5l128 -199q19 24 33 60.5t22 75.5h63z" />
    <glyph glyph-name="quotesingle" unicode="'" horiz-adv-x="278" 
d="M153 714h58v-243h-58v243z" />
    <glyph glyph-name="parenleft" unicode="(" horiz-adv-x="259" 
d="M113 -191q-32 89 -48 185.5t-16 193.5q0 149 66 285t178 256h52q-121 -148 -179.5 -295t-58.5 -333q0 -69 13 -141t36 -151h-43z" />
    <glyph glyph-name="parenright" unicode=")" horiz-adv-x="259" 
d="M130 729q32 -89 48 -185.5t16 -193.5q0 -149 -66 -285t-178 -256h-52q121 148 179.5 295t58.5 333q0 69 -13 141t-36 151h43z" />
    <glyph glyph-name="asterisk" unicode="*" horiz-adv-x="352" 
d="M72 616l21 35l102 -57l26 120h39l-25 -124l116 24l5 -38l-115 -25l60 -102l-38 -19l-59 106l-86 -92l-28 27l83 90z" />
    <glyph glyph-name="plus" unicode="+" horiz-adv-x="600" 
d="M274 503h53v-225h225v-53h-225v-225h-53v225h-225v53h225v225z" />
    <glyph glyph-name="comma" unicode="," horiz-adv-x="278" 
d="M-4 -97q32 10 45 32t24 65h-42l24 106h84l-33 -140q-11 -47 -35 -68.5t-75 -34.5z" />
    <glyph glyph-name="hyphen" unicode="-" horiz-adv-x="370" 
d="M50 304h251l-12 -58h-251z" />
    <glyph glyph-name="period" unicode="." horiz-adv-x="278" 
d="M23 0l23 106h85l-24 -106h-84z" />
    <glyph glyph-name="slash" unicode="/" horiz-adv-x="333" 
d="M-20 -15h-59l411 744h59z" />
    <glyph glyph-name="zero" unicode="0" 
d="M25 244q0 162 80 312t228 150q105 0 151.5 -67.5t46.5 -177.5q0 -172 -79.5 -324t-235.5 -152q-104 0 -147.5 73t-43.5 186zM326 653q-113 0 -175.5 -147.5t-62.5 -281.5q0 -83 32.5 -134.5t110.5 -51.5q116 0 176.5 146t60.5 284q0 82 -31.5 133.5t-110.5 51.5z" />
    <glyph glyph-name="one" unicode="1" 
d="M147 575q74 11 131 40.5t91 84.5h48l-150 -700h-63l124 581q-42 -22 -85.5 -33.5t-108.5 -22.5z" />
    <glyph glyph-name="two" unicode="2" 
d="M80 466q0 104 69 172t173 68q87 0 144 -47.5t57 -132.5t-52.5 -141t-167 -120.5t-165.5 -101.5t-76 -105h391l-11 -58h-453q0 69 34 121.5t80.5 86t129 79t123.5 72.5t72.5 69.5t31.5 99.5q0 60 -41.5 92.5t-102.5 32.5q-79 0 -126 -53.5t-47 -133.5h-63z" />
    <glyph glyph-name="three" unicode="3" 
d="M72 222q0 -87 37 -135.5t117 -48.5q79 0 134 49t55 125q0 67 -44 98t-112 31h-34l11 53h41q79 0 130 29t51 108q0 58 -39.5 90t-96.5 32q-75 0 -119 -43.5t-56 -122.5h-63q19 105 78 162t162 57q83 0 140 -45.5t57 -127.5q0 -65 -41 -111t-106 -57q50 -14 77 -54t27 -95
q0 -106 -73 -168.5t-174 -62.5q-118 0 -170 62.5t-52 174.5h63z" />
    <glyph glyph-name="four" unicode="4" 
d="M72 227h258l79 363l-2 2zM439 700h56l-102 -473h106l-12 -53h-105l-38 -174h-63l38 174h-320l11 59z" />
    <glyph glyph-name="five" unicode="5" 
d="M175 691h357l-14 -58h-306l-75 -224q29 28 70 41.5t86 13.5q89 0 141.5 -58t52.5 -148q0 -120 -73.5 -196.5t-193.5 -76.5q-97 0 -151 57t-54 156h63q-1 -7 -1 -21q0 -65 40 -102t110 -37q86 0 141.5 61.5t55.5 147.5q0 75 -39 119.5t-114 44.5q-50 0 -90.5 -19.5
t-64.5 -61.5l-56 5z" />
    <glyph glyph-name="six" unicode="6" 
d="M277 403q-78 0 -128 -60.5t-50 -139.5q0 -71 41 -118t112 -47q86 0 135 62.5t49 151.5q0 68 -44.5 109.5t-114.5 41.5zM483 523q0 130 -135 130q-69 0 -115.5 -45.5t-73.5 -111t-46 -139.5q29 47 78.5 73t107.5 26q91 0 145.5 -60t54.5 -152q0 -114 -70.5 -186.5
t-184.5 -72.5q-102 0 -155 65t-53 171q0 79 17 160t55.5 157t98.5 122t145 46q92 0 143 -46t51 -137h-63z" />
    <glyph glyph-name="seven" unicode="7" 
d="M124 691h447l-13 -54q-71 -70 -134 -152t-110.5 -163.5t-84 -165.5t-58.5 -156h-70q28 94 65 171.5t89 161t111 158.5t125 142h-381z" />
    <glyph glyph-name="eight" unicode="8" 
d="M246 38q79 0 130 45t51 122q0 74 -47 107t-125 33q-75 0 -124.5 -44t-49.5 -118q0 -71 46 -108t119 -37zM240 -15q-97 0 -159.5 50.5t-62.5 148.5q0 82 52 134.5t133 61.5q-46 16 -73 55t-27 87q0 84 61.5 134t148.5 50q89 0 149 -41.5t60 -127.5q0 -65 -41.5 -111.5
t-106.5 -56.5v-1q56 -16 86 -60.5t30 -105.5q0 -98 -75 -157.5t-175 -59.5zM166 519q0 -59 40.5 -90t101.5 -31q66 0 108.5 35t42.5 100q0 60 -39.5 90t-102.5 30t-107 -35.5t-44 -98.5z" />
    <glyph glyph-name="nine" unicode="9" 
d="M118 439q0 -68 44.5 -109.5t114.5 -41.5q78 0 128 60.5t50 139.5q0 71 -41 118t-112 47q-86 0 -135 -62.5t-49 -151.5zM71 168q0 -130 135 -130q69 0 115.5 45.5t73.5 111t46 139.5q-29 -47 -78.5 -73t-107.5 -26q-91 0 -145.5 60t-54.5 152q0 114 70.5 186.5t184.5 72.5
q102 0 155 -65t53 -171q0 -79 -17 -160t-55.5 -157t-98.5 -122t-145 -46q-92 0 -143 46t-51 137h63z" />
    <glyph glyph-name="colon" unicode=":" horiz-adv-x="278" 
d="M23 0l23 106h85l-24 -106h-84zM113 394l23 106h85l-24 -106h-84z" />
    <glyph glyph-name="semicolon" unicode=";" horiz-adv-x="278" 
d="M-4 -97q32 10 45 32t24 65h-42l24 106h84l-33 -140q-11 -47 -35 -68.5t-75 -34.5zM113 394l23 106h85l-24 -106h-84z" />
    <glyph glyph-name="less" unicode="&#x3c;" horiz-adv-x="600" 
d="M554 -8l-508 234v54l508 234v-55l-446 -206l446 -206v-55z" />
    <glyph glyph-name="equal" unicode="=" horiz-adv-x="600" 
d="M552 325h-503v53h503v-53zM552 128h-503v53h503v-53z" />
    <glyph glyph-name="greater" unicode="&#x3e;" horiz-adv-x="600" 
d="M492 253l-446 206v55l508 -234v-54l-508 -234v55z" />
    <glyph glyph-name="question" unicode="?" horiz-adv-x="537" 
d="M195 182q11 79 41.5 118t94 83t95 82.5t31.5 86.5q0 59 -36.5 91.5t-97.5 32.5q-77 0 -125 -52t-48 -131h-63q0 108 65 172t174 64q81 0 137.5 -44t56.5 -124q0 -57 -30.5 -106.5t-105 -98t-94 -81t-32.5 -93.5h-63zM170 106h85l-24 -106h-84z" />
    <glyph glyph-name="at" unicode="@" horiz-adv-x="800" 
d="M256 279q0 -45 23 -71t60 -26q65 0 115.5 80t50.5 155q0 34 -25 63.5t-54 29.5q-71 0 -120.5 -76t-49.5 -155zM614 544l-96 -288q-6 -20 -8.5 -31.5t-2.5 -22.5q0 -29 24 -29q65 0 117 80.5t52 167.5q0 120 -82 191.5t-202 71.5q-138 0 -227 -95t-89 -236
q0 -138 90.5 -230.5t227.5 -92.5q75 0 145 35.5t113 97.5h51q-44 -81 -129 -129.5t-180 -48.5q-160 0 -265.5 107.5t-105.5 267.5q0 155 107 262t260 107q147 0 243 -86.5t96 -224.5q0 -117 -72.5 -203.5t-159.5 -86.5q-27 0 -45.5 17.5t-21.5 49.5q-29 -29 -61.5 -47.5
t-67.5 -18.5q-60 0 -96 41.5t-36 103.5q0 110 67.5 199.5t169.5 89.5q35 0 62.5 -20t43.5 -64l25 65h53z" />
    <glyph glyph-name="A" unicode="A" horiz-adv-x="630" 
d="M362 714h74l130 -714h-71l-36 222h-326l-132 -222h-76zM167 280h282l-61 376z" />
    <glyph glyph-name="B" unicode="B" horiz-adv-x="667" 
d="M86 58h242q83 0 143.5 40t60.5 118q0 71 -47 99t-122 28h-215zM160 714h277q88 0 142 -39t54 -124q0 -70 -42.5 -118.5t-112.5 -59.5q55 -8 88.5 -50t33.5 -99q0 -118 -80.5 -171t-206.5 -53h-308zM161 401h225q74 0 126.5 37t52.5 106q0 58 -35.5 85t-93.5 27h-220z" />
    <glyph glyph-name="C" unicode="C" horiz-adv-x="704" 
d="M620 488q0 88 -54 135.5t-145 47.5q-152 0 -235.5 -115t-83.5 -273q0 -111 62.5 -175.5t173.5 -64.5q87 0 151 53t91 148h68q-26 -116 -108 -187.5t-213 -71.5q-137 0 -215 83t-78 221q0 180 106 310t282 130q117 0 191.5 -63t74.5 -178h-68z" />
    <glyph glyph-name="D" unicode="D" horiz-adv-x="685" 
d="M86 58h172q167 0 251.5 110t84.5 273q0 215 -215 215h-163zM160 714h230q147 0 209.5 -74t62.5 -212q0 -179 -103.5 -303.5t-287.5 -124.5h-266z" />
    <glyph glyph-name="E" unicode="E" horiz-adv-x="574" 
d="M157 714h479l-13 -58h-410l-55 -258h383l-13 -58h-382l-60 -282h420l-13 -58h-488z" />
    <glyph glyph-name="F" unicode="F" horiz-adv-x="537" 
d="M158 714h457l-12 -58h-389l-55 -258h345l-11 -58h-347l-73 -340h-68z" />
    <glyph glyph-name="G" unicode="G" horiz-adv-x="741" 
d="M638 494q0 87 -60 132t-161 45q-136 0 -225.5 -116t-89.5 -267q0 -112 59.5 -178.5t171.5 -66.5q114 0 190 73.5t95 188.5h-246l14 58h305l-75 -363h-46l12 120q-46 -70 -111 -102.5t-150 -32.5q-137 0 -212 80t-75 219q0 184 103.5 314.5t285.5 130.5q134 0 208.5 -61.5
t74.5 -173.5h-68z" />
    <glyph glyph-name="H" unicode="H" horiz-adv-x="704" 
d="M157 714h68l-66 -310h413l66 310h68l-152 -714h-68l74 346h-413l-74 -346h-68z" />
    <glyph glyph-name="I" unicode="I" horiz-adv-x="222" 
d="M156 714h68l-151 -714h-68z" />
    <glyph glyph-name="J" unicode="J" horiz-adv-x="500" 
d="M57 229q-3 -17 -6 -43.5t-3 -44.5q0 -51 35 -74.5t89 -23.5q70 0 103.5 43t49.5 119l109 509h68l-114 -534q-21 -98 -71.5 -146.5t-149.5 -48.5q-85 0 -136 39.5t-51 123.5q0 42 9 81h68z" />
    <glyph glyph-name="K" unicode="K" horiz-adv-x="648" 
d="M157 714h68l-82 -381l2 -2l461 383h95l-366 -298l255 -416h-78l-227 374l-159 -127l-53 -247h-68z" />
    <glyph glyph-name="L" unicode="L" horiz-adv-x="537" 
d="M159 714h68l-141 -656h395l-14 -58h-462z" />
    <glyph glyph-name="M" unicode="M" horiz-adv-x="852" 
d="M157 714h99l111 -641l392 641h99l-153 -714h-67l147 646l-397 -646h-68l-115 656l-137 -656h-66z" />
    <glyph glyph-name="N" unicode="N" horiz-adv-x="704" 
d="M154 714h77l285 -638l134 638h66l-156 -714h-75l-285 638l-135 -638h-65z" />
    <glyph glyph-name="O" unicode="O" horiz-adv-x="741" 
d="M421 671q-152 0 -235.5 -115t-83.5 -273q0 -111 62.5 -175.5t173.5 -64.5q139 0 225.5 113t86.5 257q0 117 -57.5 187.5t-171.5 70.5zM34 289q0 180 106 310t282 130q135 0 215.5 -81.5t80.5 -217.5q0 -185 -105 -315t-286 -130q-137 0 -215 83t-78 221z" />
    <glyph glyph-name="P" unicode="P" horiz-adv-x="630" 
d="M159 714h288q83 0 136.5 -47.5t53.5 -128.5q0 -109 -68 -170.5t-178 -61.5h-252l-66 -306h-68zM152 364h241q77 0 126.5 44t49.5 120q0 67 -38 97.5t-107 30.5h-209z" />
    <glyph glyph-name="Q" unicode="Q" horiz-adv-x="741" 
d="M649 -23l-40 -41l-100 94q-79 -45 -182 -45q-137 0 -215 83t-78 221q0 180 106 310t282 130q135 0 215.5 -81.5t80.5 -217.5q0 -112 -41.5 -210t-118.5 -158zM421 190l90 -84q65 51 102 134.5t37 172.5q0 117 -57.5 187.5t-171.5 70.5q-152 0 -235.5 -115t-83.5 -273
q0 -111 62.5 -175.5t173.5 -64.5q66 0 124 32l-80 74z" />
    <glyph glyph-name="R" unicode="R" horiz-adv-x="648" 
d="M157 714h304q90 0 138.5 -45.5t48.5 -132.5q0 -80 -51.5 -137.5t-129.5 -57.5q48 -11 69.5 -45t21.5 -85q0 -24 -5 -77.5t-5 -71.5t2.5 -35t9.5 -27h-70q-5 3 -7.5 30t-2.5 43q0 19 5 65.5t5 62.5q0 55 -23 85.5t-75 30.5h-252l-67 -317h-68zM153 375h241q82 0 134 39.5
t52 116.5q0 64 -28.5 94.5t-93.5 30.5h-245z" />
    <glyph glyph-name="S" unicode="S" horiz-adv-x="630" 
d="M539 506q0 90 -46.5 127.5t-142.5 37.5q-74 0 -128 -36t-54 -107q0 -40 23.5 -68t96.5 -50l76 -23q96 -29 144 -65t48 -117q0 -77 -62 -148.5t-214 -71.5q-124 0 -196.5 62.5t-72.5 187.5h68q0 -101 52 -146.5t154 -45.5q79 0 141 39t62 114q0 66 -42.5 90.5t-134.5 51.5
l-70 21q-67 19 -104 59t-37 107q0 100 74.5 152t178.5 52q117 0 185.5 -52.5t68.5 -170.5h-68z" />
    <glyph glyph-name="T" unicode="T" 
d="M81 714h558l-12 -58h-245l-143 -656h-68l143 656h-245z" />
    <glyph glyph-name="U" unicode="U" horiz-adv-x="704" 
d="M150 714h68l-95 -454q-7 -29 -7 -62q0 -76 52 -115.5t143 -39.5q95 0 153.5 48.5t77.5 139.5l101 483h68l-102 -488q-26 -123 -104 -182t-203 -59q-106 0 -180 50t-74 155q0 23 6 58z" />
    <glyph glyph-name="V" unicode="V" horiz-adv-x="593" 
d="M64 714h70l91 -656l368 656h74l-412 -714h-79z" />
    <glyph glyph-name="W" unicode="W" horiz-adv-x="907" 
d="M71 714h68l37 -635l306 635h82l49 -629l294 629h71l-344 -714h-74l-47 649l-314 -649h-75z" />
    <glyph glyph-name="X" unicode="X" horiz-adv-x="574" 
d="M260 372l-176 342h75l148 -300l259 300h81l-310 -353l186 -361h-72l-159 318l-280 -318h-80z" />
    <glyph glyph-name="Y" unicode="Y" horiz-adv-x="574" 
d="M598 714h83l-358 -426l-63 -288h-69l65 295l-190 419h72l161 -362z" />
    <glyph glyph-name="Z" unicode="Z" horiz-adv-x="574" 
d="M111 714h515l-12 -57l-571 -599h476l-13 -58h-556l13 60l569 596h-434z" />
    <glyph glyph-name="bracketleft" unicode="[" horiz-adv-x="241" 
d="M-28 -191l195 920h163l-11 -53h-98l-175 -814h97l-10 -53h-161z" />
    <glyph glyph-name="backslash" unicode="\" horiz-adv-x="333" 
d="M-58 729h59l411 -744h-59z" />
    <glyph glyph-name="bracketright" unicode="]" horiz-adv-x="241" 
d="M284 729l-195 -920h-163l11 53h98l175 814h-97l10 53h161z" />
    <glyph glyph-name="asciicircum" unicode="^" horiz-adv-x="600" 
d="M44 238l230 453h52l230 -453h-57l-200 390l-197 -390h-58z" />
    <glyph glyph-name="underscore" unicode="_" horiz-adv-x="500" 
d="M0 -125v50h500v-50h-500z" />
    <glyph glyph-name="grave" unicode="`" horiz-adv-x="185" 
d="M141 729l82 -144h-50l-106 144h74z" />
    <glyph glyph-name="a" unicode="a" horiz-adv-x="519" 
d="M374 276l-2 2q-13 -17 -45.5 -23t-68.5 -6q-84 0 -144 -23t-60 -95q0 -46 33 -69.5t82 -23.5q75 0 122 40t63 111zM62 362q12 84 71 126.5t147 42.5q67 0 123 -27t56 -88q0 -38 -12.5 -90.5t-20 -88.5t-20.5 -92.5t-13 -76.5q0 -12 9.5 -16.5t23.5 -4.5l25 2l-9 -50
q-23 -5 -52 -5q-26 0 -40.5 14.5t-14.5 41.5l2 28l-2 2q-26 -44 -75 -69.5t-104 -25.5q-76 0 -120.5 35t-44.5 108q0 75 48.5 110.5t98 44t112.5 12t89.5 10t41.5 28.5t15 71q0 42 -31.5 58t-77.5 16q-66 0 -109.5 -27t-52.5 -89h-63z" />
    <glyph glyph-name="b" unicode="b" horiz-adv-x="574" 
d="M456 318q0 75 -36.5 117.5t-111.5 42.5q-96 0 -153.5 -91t-57.5 -192q0 -69 36 -113t105 -44q101 0 159.5 86.5t58.5 193.5zM141 714h63l-61 -289q29 48 76.5 77t103.5 29q95 0 145.5 -59.5t50.5 -155.5q0 -128 -74 -229.5t-199 -101.5q-66 0 -113 35t-60 98l-27 -118
h-57z" />
    <glyph glyph-name="c" unicode="c" horiz-adv-x="519" 
d="M424 355q0 57 -34 90t-90 33q-106 0 -164.5 -84t-58.5 -196q0 -72 36.5 -116t107.5 -44q61 0 105 35t65 94h63q-29 -90 -88.5 -136t-152.5 -46q-94 0 -146.5 58t-52.5 155q0 131 76.5 232t203.5 101q87 0 140 -44.5t53 -131.5h-63z" />
    <glyph glyph-name="d" unicode="d" horiz-adv-x="574" 
d="M441 329q0 69 -38 109t-106 40q-101 0 -160.5 -89.5t-59.5 -196.5q0 -70 35 -112t104 -42q102 0 163.5 91.5t61.5 199.5zM438 0h-61l23 93q-36 -54 -81 -81t-109 -27q-96 0 -146 57t-50 154q0 127 79 231t203 104q65 0 108 -26.5t60 -85.5l64 295h63z" />
    <glyph glyph-name="e" unicode="e" horiz-adv-x="519" 
d="M80 241l-3 -40q0 -73 38 -118t112 -45q60 0 105.5 35.5t63.5 92.5h63q-26 -88 -84.5 -134.5t-150.5 -46.5q-101 0 -155.5 58.5t-54.5 160.5q0 131 76 229t203 98q92 0 144 -55t52 -146q0 -21 -1 -43.5t-4 -45.5h-404zM425 294l1 40q0 64 -38 104t-103 40
q-74 0 -126.5 -53.5t-70.5 -130.5h337z" />
    <glyph glyph-name="f" unicode="f" horiz-adv-x="259" 
d="M284 463h-101l-102 -463h-63l102 463h-90l12 53h89l16 75q13 61 44.5 92t93.5 31q22 0 35.5 -1t29.5 -6l-11 -52q-20 3 -39 6q-43 0 -62.5 -16.5t-28.5 -56.5l-15 -72h102z" />
    <glyph glyph-name="g" unicode="g" 
d="M223 64q91 0 148.5 80.5t57.5 175.5q0 73 -34 115.5t-107 42.5q-90 0 -147 -79t-57 -173q0 -71 35 -116.5t104 -45.5zM438 54q-30 -140 -86 -200t-173 -60q-87 0 -143 40t-56 127h63q0 -61 40.5 -87.5t104.5 -26.5q103 0 136 63t66 194l-2 2q-26 -44 -74 -69.5
t-102 -25.5q-91 0 -141 58.5t-50 151.5q0 122 73 216t191 94q62 0 110.5 -31.5t58.5 -89.5l24 106h58z" />
    <glyph glyph-name="h" unicode="h" horiz-adv-x="537" 
d="M143 714h63l-63 -292q29 47 78.5 78t104.5 31q72 0 114 -33.5t42 -105.5q0 -23 -8 -61l-71 -331h-63l72 333q7 28 7 52q0 48 -30.5 70.5t-77.5 22.5q-70 0 -125.5 -57.5t-76.5 -155.5l-57 -265h-63z" />
    <glyph glyph-name="i" unicode="i" horiz-adv-x="185" 
d="M100 516h63l-111 -516h-63zM143 714h63l-22 -101h-63z" />
    <glyph glyph-name="j" unicode="j" horiz-adv-x="185" 
d="M100 516h63l-129 -604q-13 -54 -41 -78.5t-86 -24.5q-9 0 -25 2.5t-19 2.5l12 52q6 0 18 -2t18 -2q27 0 40.5 13.5t20.5 38.5zM142 714h64l-22 -101h-63z" />
    <glyph glyph-name="k" unicode="k" horiz-adv-x="463" 
d="M141 714h63l-96 -448l2 -2l302 252h84l-244 -199l156 -317h-69l-137 279l-110 -92l-40 -187h-63z" />
    <glyph glyph-name="l" unicode="l" horiz-adv-x="185" 
d="M143 714h63l-154 -714h-63z" />
    <glyph glyph-name="m" unicode="m" horiz-adv-x="833" 
d="M100 516h58l-20 -90l2 -2q29 47 77.5 77t104.5 30q114 0 125 -110q34 51 80.5 80.5t102.5 29.5q71 0 107 -37t36 -99q0 -11 -1 -23t-6 -36l-72 -336h-63l73 338q6 27 6 52q0 88 -98 88q-76 0 -120 -64t-68 -176l-51 -238h-63l72 336q6 26 6 50q0 41 -21 66.5t-66 25.5
q-67 0 -120 -61.5t-73 -154.5l-56 -262h-63z" />
    <glyph glyph-name="n" unicode="n" horiz-adv-x="537" 
d="M100 516h58l-18 -94q32 48 81.5 78.5t104.5 30.5q72 0 114 -33.5t42 -105.5q0 -23 -8 -61l-71 -331h-63l72 333q7 28 7 52q0 48 -30.5 70.5t-77.5 22.5q-70 0 -125.5 -57.5t-76.5 -155.5l-57 -265h-63z" />
    <glyph glyph-name="o" unicode="o" 
d="M506 329q0 -141 -75 -242.5t-211 -101.5q-98 0 -152 58t-54 157q0 135 78 233t210 98q92 0 148 -54t56 -148zM443 316q0 74 -39 118t-113 44q-97 0 -155.5 -85t-58.5 -187q0 -77 39.5 -122.5t115.5 -45.5q96 0 153.5 88.5t57.5 189.5z" />
    <glyph glyph-name="p" unicode="p" horiz-adv-x="574" 
d="M102 187q0 -69 38 -109t106 -40q101 0 160.5 89.5t59.5 196.5q0 70 -35 112t-104 42q-102 0 -163.5 -91.5t-61.5 -199.5zM106 516h57l-20 -93q36 54 81 81t109 27q96 0 146 -57t50 -154q0 -127 -79 -231t-203 -104q-66 0 -110.5 28.5t-54.5 89.5l-65 -294h-63z" />
    <glyph glyph-name="q" unicode="q" horiz-adv-x="574" 
d="M85 198q0 -75 36.5 -117.5t111.5 -42.5q96 0 153.5 91t57.5 192q0 69 -36 113t-105 44q-101 0 -159.5 -86.5t-58.5 -193.5zM402 -191h-63l61 282q-31 -49 -78 -77.5t-104 -28.5q-95 0 -145.5 59.5t-50.5 155.5q0 128 74 229.5t199 101.5q65 0 113 -32t64 -86l24 103h58z
" />
    <glyph glyph-name="r" unicode="r" horiz-adv-x="315" 
d="M100 516h57l-26 -119q35 62 79 94t110 32l34 -1l-14 -63l-36 1q-79 0 -127.5 -54t-66.5 -136l-58 -270h-63z" />
    <glyph glyph-name="s" unicode="s" horiz-adv-x="481" 
d="M62 168q0 -69 41.5 -99.5t104.5 -30.5q50 0 90 24.5t40 70.5q0 52 -40.5 72t-103.5 44.5t-98 53.5t-35 87q0 69 59 105t132 36q85 0 134.5 -40t49.5 -126h-63q0 57 -32.5 85t-88.5 28q-51 0 -89.5 -20t-38.5 -68q0 -33 27 -53t98 -48t111.5 -55.5t40.5 -90.5
q0 -80 -62 -119t-146 -39q-81 0 -137.5 46t-56.5 137h63z" />
    <glyph glyph-name="t" unicode="t" horiz-adv-x="296" 
d="M43 516h93l33 156h63l-33 -156h103l-10 -53h-105l-71 -331q-3 -14 -5 -27t-2 -22q0 -16 7.5 -26t25.5 -10q36 0 74 6l-11 -55q-29 -3 -37 -3.5t-27 -0.5q-43 0 -69 15.5t-26 58.5q0 21 3 33t4 20l71 342h-93z" />
    <glyph glyph-name="u" unicode="u" horiz-adv-x="537" 
d="M402 0h-58l18 94q-32 -48 -81.5 -78.5t-104.5 -30.5q-72 0 -114 33.5t-42 105.5q0 23 8 61l71 331h63l-72 -333q-7 -28 -7 -52q0 -48 30.5 -70.5t77.5 -22.5q70 0 125.5 57.5t76.5 155.5l57 265h63z" />
    <glyph glyph-name="v" unicode="v" horiz-adv-x="463" 
d="M35 516h66l61 -445l244 445h69l-291 -516h-68z" />
    <glyph glyph-name="w" unicode="w" horiz-adv-x="741" 
d="M30 516h66l41 -440l215 440h74l35 -436l221 436h67l-271 -516h-68l-37 433l-214 -433h-69z" />
    <glyph glyph-name="x" unicode="x" horiz-adv-x="463" 
d="M188 272l-121 244h72l94 -203l178 203h76l-227 -250l137 -266h-72l-110 225l-198 -225h-75z" />
    <glyph glyph-name="y" unicode="y" horiz-adv-x="463" 
d="M-43 -135l54 -3q26 0 46.5 16t34.5 40l47 82l-95 516h66l74 -438l240 438h68l-367 -638q-39 -69 -125 -69q-10 0 -30 2.5t-25 2.5z" />
    <glyph glyph-name="z" unicode="z" horiz-adv-x="426" 
d="M55 516h388l-11 -50l-401 -413h331l-11 -53h-409l11 51l399 412h-308z" />
    <glyph glyph-name="braceleft" unicode="{" horiz-adv-x="333" 
d="M138 -191q-31 0 -54 23t-23 62q0 17 5 40l31 148q6 30 8.5 47.5t2.5 36.5q0 35 -12 55.5t-38 20.5l11 53q40 0 65.5 44.5t40.5 115.5l31 149q11 58 41.5 91.5t72.5 33.5h50l-11 -53h-23q-26 0 -42.5 -19t-29.5 -84l-29 -141q-11 -54 -41 -100t-65 -62q20 -18 31 -45.5
t11 -61.5q0 -11 -1.5 -24.5t-5.5 -32.5l-27 -129q-4 -17 -8.5 -40t-4.5 -31q0 -18 7.5 -31t31.5 -13h26l-11 -53h-40z" />
    <glyph glyph-name="bar" unicode="|" horiz-adv-x="222" 
d="M85 729h53v-744h-53v744z" />
    <glyph glyph-name="braceright" unicode="}" horiz-adv-x="333" 
d="M171 729q31 0 54 -23t23 -62q0 -17 -5 -40l-31 -148q-6 -30 -8.5 -47.5t-2.5 -36.5q0 -35 12 -55.5t38 -20.5l-11 -53q-40 0 -65.5 -44.5t-40.5 -115.5l-31 -149q-11 -58 -41.5 -91.5t-72.5 -33.5h-50l11 53h23q26 0 42.5 19t29.5 84l29 141q11 54 41 100t65 62
q-20 18 -31 45.5t-11 61.5q0 11 1.5 24.5t5.5 32.5l27 129q3 17 8 40t5 31q0 18 -7.5 31t-31.5 13h-26l11 53h40z" />
    <glyph glyph-name="asciitilde" unicode="~" horiz-adv-x="600" 
d="M531 279q-31 -43 -57 -64.5t-68 -21.5q-21 0 -45 6.5t-62.5 25t-61 26t-48.5 7.5q-30 0 -50 -19t-34 -50l-36 36q20 39 49 62.5t76 23.5q24 0 53 -9t69 -26.5t59 -23.5t32 -6q27 0 46.5 17.5t41.5 51.5z" />
    <glyph glyph-name="nonbreakingspace" unicode="&#xa0;" horiz-adv-x="250" 
 />
    <glyph glyph-name="exclamdown" unicode="&#xa1;" horiz-adv-x="278" 
d="M119 410l23 106h85l-24 -106h-84zM165 345l-54 -313l-46 -223h-67l46 225l84 311h37z" />
    <glyph glyph-name="cent" unicode="&#xa2;" 
d="M300 478q-95 -10 -148 -93t-53 -187q0 -62 27 -103.5t80 -52.5zM211 -117h-39l23 106q-76 11 -117.5 66.5t-41.5 142.5q0 129 76 231t200 102l19 87h38l-19 -89q73 -9 116 -52.5t43 -121.5h-63q0 53 -29 85.5t-78 37.5l-94 -440q60 0 103 34.5t65 94.5h63
q-29 -90 -88.5 -136t-152.5 -46z" />
    <glyph glyph-name="sterling" unicode="&#xa3;" 
d="M43 362h70q-14 38 -20 66.5t-6 63.5q0 110 68.5 173.5t170.5 63.5q95 0 155 -57t60 -150q0 -16 -1 -24h-63q0 81 -36 129.5t-111 48.5q-77 0 -128.5 -45.5t-51.5 -133.5q0 -71 26 -135h158l-6 -34h-143q5 -20 8.5 -40.5t3.5 -37.5q0 -66 -39.5 -107.5t-89.5 -84.5l2 -2
q53 23 105 23q20 0 39.5 -6t38 -13t42.5 -14.5t45 -7.5q36 0 62.5 14t59.5 45l24 -50q-36 -34 -73.5 -48t-88.5 -14q-18 0 -39.5 6t-48.5 16t-47 14.5t-46 4.5q-32 0 -61 -10t-62 -29l-24 55q82 66 110 113.5t28 97.5q0 20 -3 38q-6 25 -8 37h-87z" />
    <glyph glyph-name="currency" unicode="&#xa4;" 
d="M86 192q-56 65 -56 154q0 45 13.5 83t41.5 72l-55 55l38 38l55 -55q68 55 155 55t155 -55l55 55l38 -38l-55 -55q55 -66 55 -155q0 -87 -55 -155l55 -55l-38 -38l-56 56q-65 -56 -154 -56t-155 55l-55 -55l-38 38zM278 161q77 0 131 54t54 131t-54 131t-131 54t-131 -54
t-54 -131t54 -131t131 -54z" />
    <glyph glyph-name="yen" unicode="&#xa5;" 
d="M633 714l-281 -365h111l-10 -45h-136l-12 -16l-15 -67h146l-10 -45h-146l-38 -176h-63l39 176h-132l10 45h132l16 74l-3 9h-128l10 45h100l-139 365h64l136 -365l274 365h75z" />
    <glyph glyph-name="section" unicode="&#xa7;" 
d="M337 346q-17 17 -63.5 60t-60.5 59q-36 0 -70.5 -32.5t-34.5 -76.5q0 -27 25 -64t66 -78l111 -112q46 6 76.5 34t30.5 73q0 30 -22 65.5t-58 71.5zM446 554q0 56 -26.5 89t-82.5 33q-45 0 -78 -22.5t-33 -73.5q0 -44 37 -81t102.5 -97t90 -101.5t24.5 -80.5
q0 -64 -39 -106t-104 -50q15 -20 23.5 -41.5t8.5 -44.5q0 -72 -54 -110t-129 -38q-80 0 -128 51t-48 132h63q-1 -6 -1 -17q0 -50 34.5 -81.5t88.5 -31.5q43 0 77 23.5t34 63.5q0 50 -33.5 86.5t-106 105.5t-97 111t-24.5 83q0 60 41 101t103 49q-13 19 -19.5 37.5t-6.5 39.5
q0 66 49 106t123 40q83 0 128.5 -42.5t45.5 -132.5h-63z" />
    <glyph glyph-name="dieresis" unicode="&#xa8;" horiz-adv-x="185" 
d="M215 703h64l-20 -102h-63zM56 703h64l-20 -102h-63z" />
    <glyph glyph-name="copyright" unicode="&#xa9;" horiz-adv-x="800" 
d="M400 -15q-158 0 -265 107t-107 265q0 156 107 264t265 108t265 -107t107 -265q0 -156 -107 -264t-265 -108zM400 676q-134 0 -224 -92t-90 -227t90 -227t224 -92t224 92t90 227t-90 227t-224 92zM543 435q-9 47 -44.5 76.5t-88.5 29.5q-78 0 -121.5 -51.5t-43.5 -132.5
t43 -132.5t122 -51.5q53 0 88.5 29.5t44.5 76.5h51q-10 -71 -61 -111t-124 -40q-99 0 -158 64t-59 165t58 165t159 64q73 0 124 -40t61 -111h-51z" />
    <glyph glyph-name="ordfeminine" unicode="&#xaa;" horiz-adv-x="311" 
d="M277 546l-3 1q-7 -10 -21 -12t-67 -7.5t-84 -16t-31 -52.5q0 -25 21.5 -38.5t51.5 -13.5q49 0 79.5 23.5t40.5 66.5zM70 599q8 53 48 80t100 27t88 -21.5t28 -52.5q0 -22 -6 -51q-8 -31 -15 -62t-14 -59.5t-7 -30.5q0 -13 21 -13l16 1l-6 -37l-33 -3q-37 0 -37 35l3 17
q-19 -29 -51 -45t-68 -16q-54 0 -83.5 21t-29.5 70t31.5 71t65 27.5t72.5 7t66.5 8t27.5 51.5q0 23 -21 33t-45 10q-44 0 -73 -16t-35 -52h-43z" />
    <glyph glyph-name="guillemotleft" unicode="&#xab;" horiz-adv-x="426" 
d="M50 257l15 64l159 113l-15 -68l-116 -84l75 -102l-12 -63zM210 257l15 64l159 113l-15 -68l-116 -84l75 -102l-12 -63z" />
    <glyph glyph-name="logicalnot" unicode="&#xac;" horiz-adv-x="600" 
d="M499 325h-450v53h503v-267h-53v214z" />
    <glyph glyph-name="registered" unicode="&#xae;" horiz-adv-x="800" 
d="M772 357q0 -156 -107 -264t-265 -108t-265 107t-107 265q0 156 107 264t265 108t265 -107t107 -265zM86 357q0 -135 90 -227t224 -92t224 92t90 227t-90 227t-224 92t-224 -92t-90 -227zM318 142h-53v430h165q72 0 106 -30t34 -89q0 -54 -29.5 -83t-78.5 -37l128 -191
h-62l-121 191h-89v-191zM388 378q64 0 96.5 13t32.5 62q0 41 -28.5 57.5t-73.5 16.5h-97v-149h70z" />
    <glyph glyph-name="degree" unicode="&#xb0;" horiz-adv-x="400" 
d="M261 706q60 0 102 -42t42 -102t-42 -102t-102 -42t-102 42t-42 102t42 102t102 42zM261 457q44 0 74.5 30.5t30.5 74.5t-30.5 74.5t-74.5 30.5t-74.5 -30.5t-30.5 -74.5t30.5 -74.5t74.5 -30.5z" />
    <glyph glyph-name="plusminus" unicode="&#xb1;" horiz-adv-x="600" 
d="M274 503h53v-180h225v-53h-225v-180h-53v180h-224v53h224v180zM49 53h503v-53h-503v53z" />
    <glyph glyph-name="acute" unicode="&#xb4;" horiz-adv-x="185" 
d="M200 729h81l-144 -144h-53z" />
    <glyph glyph-name="mu" unicode="&#xb5;" horiz-adv-x="537" 
d="M402 0h-58l18 94q-32 -48 -81.5 -78.5t-104.5 -30.5q-83 0 -121 41l-45 -217h-61l150 707h63l-72 -333q-7 -28 -7 -52q0 -48 30.5 -70.5t77.5 -22.5q70 0 125.5 57.5t76.5 155.5l57 265h63z" />
    <glyph glyph-name="paragraph" unicode="&#xb6;" horiz-adv-x="600" 
d="M241 328q-76 0 -123.5 43.5t-47.5 110.5q0 20 11.5 75t80.5 106t175 51h217l-185 -891h-53l176 847h-127l-176 -847h-53z" />
    <glyph glyph-name="cedilla" unicode="&#xb8;" horiz-adv-x="185" 
d="M-71 -153q24 -10 39.5 -13.5t38.5 -3.5q24 0 40 9t16 32q0 20 -15.5 30.5t-38.5 10.5q-21 0 -39 -9l-16 18l73 85h37l-58 -62l2 -2q12 3 16.5 3.5t19.5 0.5q33 0 53.5 -17t20.5 -52q0 -38 -33 -59.5t-74 -21.5q-49 0 -96 22z" />
    <glyph glyph-name="ordmasculine" unicode="&#xba;" horiz-adv-x="334" 
d="M36 502q0 85 51 144.5t141 59.5q63 0 99.5 -32.5t36.5 -93.5q0 -88 -49.5 -150t-140.5 -62q-67 0 -102.5 35.5t-35.5 98.5zM83 506q0 -46 25 -72.5t74 -26.5q61 0 98 53t37 112q0 43 -25 69t-72 26q-61 0 -99 -51t-38 -110z" />
    <glyph glyph-name="guillemotright" unicode="&#xbb;" horiz-adv-x="426" 
d="M349 294l-15 -64l-159 -113l15 68l116 84l-75 102l12 63zM189 294l-15 -64l-159 -113l15 68l116 84l-75 102l12 63z" />
    <glyph glyph-name="questiondown" unicode="&#xbf;" horiz-adv-x="537" 
d="M306 341q-11 -79 -41.5 -118t-94 -83t-95 -82.5t-31.5 -86.5q0 -59 36.5 -91.5t97.5 -32.5q77 0 125 52t48 131h63q0 -108 -65 -172t-174 -64q-81 0 -137.5 44t-56.5 124q0 57 30.5 106.5t105 98t94 81t32.5 93.5h63zM269 516h85l-24 -106h-84z" />
    <glyph glyph-name="Agrave" unicode="&#xc0;" horiz-adv-x="630" 
d="M362 714h74l130 -714h-71l-36 222h-326l-132 -222h-76zM167 280h282l-61 376zM364 907l82 -144h-50l-106 144h74z" />
    <glyph glyph-name="Aacute" unicode="&#xc1;" horiz-adv-x="630" 
d="M362 714h74l130 -714h-71l-36 222h-326l-132 -222h-76zM167 280h282l-61 376zM441 907h81l-144 -144h-53z" />
    <glyph glyph-name="Acircumflex" unicode="&#xc2;" horiz-adv-x="630" 
d="M362 714h74l130 -714h-71l-36 222h-326l-132 -222h-76zM167 280h282l-61 376zM299 763h-61l136 144h63l86 -144h-57l-66 106z" />
    <glyph glyph-name="Atilde" unicode="&#xc3;" horiz-adv-x="630" 
d="M362 714h74l130 -714h-71l-36 222h-326l-132 -222h-76zM167 280h282l-61 376zM555 879q-5 -21 -11 -36.5t-18 -31t-26.5 -24.5t-33.5 -9t-32.5 5.5t-37 18.5t-41 22.5t-29.5 9.5q-17 0 -30.5 -18t-17.5 -38h-41q12 44 33.5 72.5t59.5 28.5q17 0 32.5 -6.5t40 -21.5
t38 -21.5t29.5 -6.5q14 0 27 19t18 37h40z" />
    <glyph glyph-name="Adieresis" unicode="&#xc4;" horiz-adv-x="630" 
d="M362 714h74l130 -714h-71l-36 222h-326l-132 -222h-76zM167 280h282l-61 376zM456 881h64l-20 -102h-63zM297 881h64l-20 -102h-63z" />
    <glyph glyph-name="Aring" unicode="&#xc5;" horiz-adv-x="630" 
d="M362 714h74l130 -714h-71l-36 222h-326l-132 -222h-76zM167 280h282l-61 376zM466 852q0 25 -20 45t-46 20t-45.5 -19.5t-19.5 -45.5q0 -27 19.5 -46.5t45.5 -19.5t46 20t20 46zM301 852q0 40 29.5 69.5t69.5 29.5t70 -29t30 -70q0 -42 -29 -71t-71 -29q-41 0 -70 29
t-29 71z" />
    <glyph glyph-name="AE" unicode="&#xc6;" horiz-adv-x="889" 
d="M453 714h498l-13 -58h-357l-56 -258h335l-13 -58h-334l-61 -282h369l-13 -58h-437l49 226h-255l-166 -226h-80zM208 284h224l81 372h-30z" />
    <glyph glyph-name="Ccedilla" unicode="&#xc7;" horiz-adv-x="704" 
d="M648 244q-26 -116 -108 -187.5t-213 -71.5l-23 1l-39 -42l2 -2q12 3 16.5 3.5t19.5 0.5q33 0 53.5 -17t20.5 -52q0 -38 -33 -59.5t-74 -21.5q-49 0 -96 22l14 29q24 -10 39.5 -13.5t38.5 -3.5q24 0 40 9t16 32q0 20 -15.5 30.5t-38.5 10.5q-21 0 -39 -9l-16 18l60 70
q-113 15 -176 95t-63 203q0 180 106 310t282 130q117 0 191.5 -63t74.5 -178h-68q0 88 -54 135.5t-145 47.5q-152 0 -235.5 -115t-83.5 -273q0 -111 62.5 -175.5t173.5 -64.5q87 0 151 53t91 148h68z" />
    <glyph glyph-name="Egrave" unicode="&#xc8;" horiz-adv-x="574" 
d="M157 714h479l-13 -58h-410l-55 -258h383l-13 -58h-382l-60 -282h420l-13 -58h-488zM381 907l82 -144h-50l-106 144h74z" />
    <glyph glyph-name="Eacute" unicode="&#xc9;" horiz-adv-x="574" 
d="M157 714h479l-13 -58h-410l-55 -258h383l-13 -58h-382l-60 -282h420l-13 -58h-488zM440 907h81l-144 -144h-53z" />
    <glyph glyph-name="Ecircumflex" unicode="&#xca;" horiz-adv-x="574" 
d="M157 714h479l-13 -58h-410l-55 -258h383l-13 -58h-382l-60 -282h420l-13 -58h-488zM298 763h-61l136 144h63l86 -144h-57l-66 106z" />
    <glyph glyph-name="Edieresis" unicode="&#xcb;" horiz-adv-x="574" 
d="M157 714h479l-13 -58h-410l-55 -258h383l-13 -58h-382l-60 -282h420l-13 -58h-488zM455 881h64l-20 -102h-63zM296 881h64l-20 -102h-63z" />
    <glyph glyph-name="Igrave" unicode="&#xcc;" horiz-adv-x="222" 
d="M156 714h68l-151 -714h-68zM178 907l82 -144h-50l-106 144h74z" />
    <glyph glyph-name="Iacute" unicode="&#xcd;" horiz-adv-x="222" 
d="M156 714h68l-151 -714h-68zM237 907h81l-144 -144h-53z" />
    <glyph glyph-name="Icircumflex" unicode="&#xce;" horiz-adv-x="222" 
d="M156 714h68l-151 -714h-68zM95 763h-61l136 144h63l86 -144h-57l-66 106z" />
    <glyph glyph-name="Idieresis" unicode="&#xcf;" horiz-adv-x="222" 
d="M156 714h68l-151 -714h-68zM252 881h64l-20 -102h-63zM93 881h64l-20 -102h-63z" />
    <glyph glyph-name="Ntilde" unicode="&#xd1;" horiz-adv-x="704" 
d="M154 714h77l285 -638l134 638h66l-156 -714h-75l-285 638l-135 -638h-65zM610 879q-5 -21 -11 -36.5t-18 -31t-26.5 -24.5t-33.5 -9t-32.5 5.5t-37 18.5t-41 22.5t-29.5 9.5q-17 0 -30.5 -18t-17.5 -38h-41q12 44 33.5 72.5t59.5 28.5q17 0 32.5 -6.5t40 -21.5t38 -21.5
t29.5 -6.5q14 0 27 19t18 37h40z" />
    <glyph glyph-name="Ograve" unicode="&#xd2;" horiz-adv-x="741" 
d="M421 671q-152 0 -235.5 -115t-83.5 -273q0 -111 62.5 -175.5t173.5 -64.5q139 0 225.5 113t86.5 257q0 117 -57.5 187.5t-171.5 70.5zM34 289q0 180 106 310t282 130q135 0 215.5 -81.5t80.5 -217.5q0 -185 -105 -315t-286 -130q-137 0 -215 83t-78 221zM419 907l82 -144
h-50l-106 144h74z" />
    <glyph glyph-name="Oacute" unicode="&#xd3;" horiz-adv-x="741" 
d="M421 671q-152 0 -235.5 -115t-83.5 -273q0 -111 62.5 -175.5t173.5 -64.5q139 0 225.5 113t86.5 257q0 117 -57.5 187.5t-171.5 70.5zM34 289q0 180 106 310t282 130q135 0 215.5 -81.5t80.5 -217.5q0 -185 -105 -315t-286 -130q-137 0 -215 83t-78 221zM478 907h81
l-144 -144h-53z" />
    <glyph glyph-name="Ocircumflex" unicode="&#xd4;" horiz-adv-x="741" 
d="M421 671q-152 0 -235.5 -115t-83.5 -273q0 -111 62.5 -175.5t173.5 -64.5q139 0 225.5 113t86.5 257q0 117 -57.5 187.5t-171.5 70.5zM34 289q0 180 106 310t282 130q135 0 215.5 -81.5t80.5 -217.5q0 -185 -105 -315t-286 -130q-137 0 -215 83t-78 221zM336 763h-61
l136 144h63l86 -144h-57l-66 106z" />
    <glyph glyph-name="Otilde" unicode="&#xd5;" horiz-adv-x="741" 
d="M421 671q-152 0 -235.5 -115t-83.5 -273q0 -111 62.5 -175.5t173.5 -64.5q139 0 225.5 113t86.5 257q0 117 -57.5 187.5t-171.5 70.5zM34 289q0 180 106 310t282 130q135 0 215.5 -81.5t80.5 -217.5q0 -185 -105 -315t-286 -130q-137 0 -215 83t-78 221zM592 879
q-5 -21 -11 -36.5t-18 -31t-26.5 -24.5t-33.5 -9t-32.5 5.5t-37 18.5t-41 22.5t-29.5 9.5q-17 0 -30.5 -18t-17.5 -38h-41q12 44 33.5 72.5t59.5 28.5q17 0 32.5 -6.5t40 -21.5t38 -21.5t29.5 -6.5q14 0 27 19t18 37h40z" />
    <glyph glyph-name="Odieresis" unicode="&#xd6;" horiz-adv-x="741" 
d="M421 671q-152 0 -235.5 -115t-83.5 -273q0 -111 62.5 -175.5t173.5 -64.5q139 0 225.5 113t86.5 257q0 117 -57.5 187.5t-171.5 70.5zM34 289q0 180 106 310t282 130q135 0 215.5 -81.5t80.5 -217.5q0 -185 -105 -315t-286 -130q-137 0 -215 83t-78 221zM493 881h64
l-20 -102h-63zM334 881h64l-20 -102h-63z" />
    <glyph glyph-name="Oslash" unicode="&#xd8;" horiz-adv-x="741" 
d="M586 606q-28 30 -70.5 47.5t-94.5 17.5q-152 0 -235.5 -115t-83.5 -273q0 -87 38 -143zM740 712l-83 -86q61 -78 61 -196q0 -185 -105 -315t-286 -130q-67 0 -119 20t-91 59l-88 -91l-24 27l88 91q-59 77 -59 198q0 180 106 310t282 130q65 0 117 -19t92 -57l84 88z
M163 112q31 -33 74.5 -51t100.5 -18q139 0 225.5 113t86.5 257q0 99 -41 163z" />
    <glyph glyph-name="Ugrave" unicode="&#xd9;" horiz-adv-x="704" 
d="M150 714h68l-95 -454q-7 -29 -7 -62q0 -76 52 -115.5t143 -39.5q95 0 153.5 48.5t77.5 139.5l101 483h68l-102 -488q-26 -123 -104 -182t-203 -59q-106 0 -180 50t-74 155q0 23 6 58zM401 907l82 -144h-50l-106 144h74z" />
    <glyph glyph-name="Uacute" unicode="&#xda;" horiz-adv-x="704" 
d="M150 714h68l-95 -454q-7 -29 -7 -62q0 -76 52 -115.5t143 -39.5q95 0 153.5 48.5t77.5 139.5l101 483h68l-102 -488q-26 -123 -104 -182t-203 -59q-106 0 -180 50t-74 155q0 23 6 58zM496 907h81l-144 -144h-53z" />
    <glyph glyph-name="Ucircumflex" unicode="&#xdb;" horiz-adv-x="704" 
d="M150 714h68l-95 -454q-7 -29 -7 -62q0 -76 52 -115.5t143 -39.5q95 0 153.5 48.5t77.5 139.5l101 483h68l-102 -488q-26 -123 -104 -182t-203 -59q-106 0 -180 50t-74 155q0 23 6 58zM354 763h-61l136 144h63l86 -144h-57l-66 106z" />
    <glyph glyph-name="Udieresis" unicode="&#xdc;" horiz-adv-x="704" 
d="M150 714h68l-95 -454q-7 -29 -7 -62q0 -76 52 -115.5t143 -39.5q95 0 153.5 48.5t77.5 139.5l101 483h68l-102 -488q-26 -123 -104 -182t-203 -59q-106 0 -180 50t-74 155q0 23 6 58zM511 881h64l-20 -102h-63zM352 881h64l-20 -102h-63z" />
    <glyph glyph-name="germandbls" unicode="&#xdf;" horiz-adv-x="519" 
d="M107 545q19 91 70.5 137.5t140.5 46.5q79 0 127.5 -38t48.5 -117q0 -67 -43.5 -116.5t-109.5 -58.5q56 -14 87 -52.5t31 -96.5q0 -106 -71.5 -181t-177.5 -75h-18q-27 0 -48 4l11 52q7 -1 20 -2t25 -1q81 0 138.5 55.5t57.5 136.5q0 74 -45.5 101.5t-125.5 27.5l12 53
q76 0 135 36.5t59 111.5q0 50 -30.5 78.5t-80.5 28.5q-69 0 -102.5 -36.5t-50.5 -110.5l-115 -529h-63z" />
    <glyph glyph-name="agrave" unicode="&#xe0;" horiz-adv-x="519" 
d="M374 276l-2 2q-13 -17 -45.5 -23t-68.5 -6q-84 0 -144 -23t-60 -95q0 -46 33 -69.5t82 -23.5q75 0 122 40t63 111zM62 362q12 84 71 126.5t147 42.5q67 0 123 -27t56 -88q0 -38 -12.5 -90.5t-20 -88.5t-20.5 -92.5t-13 -76.5q0 -12 9.5 -16.5t23.5 -4.5l25 2l-9 -50
q-23 -5 -52 -5q-26 0 -40.5 14.5t-14.5 41.5l2 28l-2 2q-26 -44 -75 -69.5t-104 -25.5q-76 0 -120.5 35t-44.5 108q0 75 48.5 110.5t98 44t112.5 12t89.5 10t41.5 28.5t15 71q0 42 -31.5 58t-77.5 16q-66 0 -109.5 -27t-52.5 -89h-63zM278 729l82 -144h-50l-106 144h74z" />
    <glyph glyph-name="aacute" unicode="&#xe1;" horiz-adv-x="519" 
d="M374 276l-2 2q-13 -17 -45.5 -23t-68.5 -6q-84 0 -144 -23t-60 -95q0 -46 33 -69.5t82 -23.5q75 0 122 40t63 111zM62 362q12 84 71 126.5t147 42.5q67 0 123 -27t56 -88q0 -38 -12.5 -90.5t-20 -88.5t-20.5 -92.5t-13 -76.5q0 -12 9.5 -16.5t23.5 -4.5l25 2l-9 -50
q-23 -5 -52 -5q-26 0 -40.5 14.5t-14.5 41.5l2 28l-2 2q-26 -44 -75 -69.5t-104 -25.5q-76 0 -120.5 35t-44.5 108q0 75 48.5 110.5t98 44t112.5 12t89.5 10t41.5 28.5t15 71q0 42 -31.5 58t-77.5 16q-66 0 -109.5 -27t-52.5 -89h-63zM367 729h81l-144 -144h-53z" />
    <glyph glyph-name="acircumflex" unicode="&#xe2;" horiz-adv-x="519" 
d="M374 276l-2 2q-13 -17 -45.5 -23t-68.5 -6q-84 0 -144 -23t-60 -95q0 -46 33 -69.5t82 -23.5q75 0 122 40t63 111zM62 362q12 84 71 126.5t147 42.5q67 0 123 -27t56 -88q0 -38 -12.5 -90.5t-20 -88.5t-20.5 -92.5t-13 -76.5q0 -12 9.5 -16.5t23.5 -4.5l25 2l-9 -50
q-23 -5 -52 -5q-26 0 -40.5 14.5t-14.5 41.5l2 28l-2 2q-26 -44 -75 -69.5t-104 -25.5q-76 0 -120.5 35t-44.5 108q0 75 48.5 110.5t98 44t112.5 12t89.5 10t41.5 28.5t15 71q0 42 -31.5 58t-77.5 16q-66 0 -109.5 -27t-52.5 -89h-63zM225 585h-61l136 144h63l86 -144h-57
l-66 106z" />
    <glyph glyph-name="atilde" unicode="&#xe3;" horiz-adv-x="519" 
d="M374 276l-2 2q-13 -17 -45.5 -23t-68.5 -6q-84 0 -144 -23t-60 -95q0 -46 33 -69.5t82 -23.5q75 0 122 40t63 111zM62 362q12 84 71 126.5t147 42.5q67 0 123 -27t56 -88q0 -38 -12.5 -90.5t-20 -88.5t-20.5 -92.5t-13 -76.5q0 -12 9.5 -16.5t23.5 -4.5l25 2l-9 -50
q-23 -5 -52 -5q-26 0 -40.5 14.5t-14.5 41.5l2 28l-2 2q-26 -44 -75 -69.5t-104 -25.5q-76 0 -120.5 35t-44.5 108q0 75 48.5 110.5t98 44t112.5 12t89.5 10t41.5 28.5t15 71q0 42 -31.5 58t-77.5 16q-66 0 -109.5 -27t-52.5 -89h-63zM481 701q-5 -21 -11 -36.5t-18 -31
t-26.5 -24.5t-33.5 -9t-32.5 5.5t-37 18.5t-41 22.5t-29.5 9.5q-17 0 -30.5 -18t-17.5 -38h-41q12 44 33.5 72.5t59.5 28.5q17 0 32.5 -6.5t40 -21.5t38 -21.5t29.5 -6.5q14 0 27 19t18 37h40z" />
    <glyph glyph-name="adieresis" unicode="&#xe4;" horiz-adv-x="519" 
d="M374 276l-2 2q-13 -17 -45.5 -23t-68.5 -6q-84 0 -144 -23t-60 -95q0 -46 33 -69.5t82 -23.5q75 0 122 40t63 111zM62 362q12 84 71 126.5t147 42.5q67 0 123 -27t56 -88q0 -38 -12.5 -90.5t-20 -88.5t-20.5 -92.5t-13 -76.5q0 -12 9.5 -16.5t23.5 -4.5l25 2l-9 -50
q-23 -5 -52 -5q-26 0 -40.5 14.5t-14.5 41.5l2 28l-2 2q-26 -44 -75 -69.5t-104 -25.5q-76 0 -120.5 35t-44.5 108q0 75 48.5 110.5t98 44t112.5 12t89.5 10t41.5 28.5t15 71q0 42 -31.5 58t-77.5 16q-66 0 -109.5 -27t-52.5 -89h-63zM382 703h64l-20 -102h-63zM223 703h64
l-20 -102h-63z" />
    <glyph glyph-name="aring" unicode="&#xe5;" horiz-adv-x="519" 
d="M374 276l-2 2q-13 -17 -45.5 -23t-68.5 -6q-84 0 -144 -23t-60 -95q0 -46 33 -69.5t82 -23.5q75 0 122 40t63 111zM62 362q12 84 71 126.5t147 42.5q67 0 123 -27t56 -88q0 -38 -12.5 -90.5t-20 -88.5t-20.5 -92.5t-13 -76.5q0 -12 9.5 -16.5t23.5 -4.5l25 2l-9 -50
q-23 -5 -52 -5q-26 0 -40.5 14.5t-14.5 41.5l2 28l-2 2q-26 -44 -75 -69.5t-104 -25.5q-76 0 -120.5 35t-44.5 108q0 75 48.5 110.5t98 44t112.5 12t89.5 10t41.5 28.5t15 71q0 42 -31.5 58t-77.5 16q-66 0 -109.5 -27t-52.5 -89h-63zM392 674q0 25 -20 45t-46 20
t-45.5 -19.5t-19.5 -45.5q0 -27 19.5 -46.5t45.5 -19.5t46 20t20 46zM227 674q0 40 29.5 69.5t69.5 29.5t70 -29t30 -70q0 -42 -29 -71t-71 -29q-41 0 -70 29t-29 71z" />
    <glyph glyph-name="ae" unicode="&#xe6;" horiz-adv-x="852" 
d="M756 294q2 12 2 24.5v19.5q0 62 -35 101t-97 39q-77 0 -125.5 -50.5t-65.5 -133.5h321zM62 362q12 84 71 126.5t147 42.5q59 0 107 -23.5t60 -81.5q30 52 77.5 78.5t107.5 26.5q91 0 140 -57t49 -153q0 -35 -10 -80h-385q-3 -16 -5.5 -32t-2.5 -35q0 -62 39 -99t101 -37
q63 0 109 34t62 94h63q-30 -92 -89.5 -136.5t-157.5 -44.5q-72 0 -119 34t-55 103q-26 -69 -81 -103t-134 -34q-76 0 -120.5 35t-44.5 108q0 75 48.5 110.5t98 44t112.5 12t89.5 10t41.5 28.5t15 71q0 42 -31.5 58t-77.5 16q-66 0 -109.5 -27t-52.5 -89h-63zM374 276l-2 2
q-13 -17 -45.5 -23t-68.5 -6q-84 0 -144 -23t-60 -95q0 -46 33 -69.5t82 -23.5q75 0 122 40t63 111z" />
    <glyph glyph-name="ccedilla" unicode="&#xe7;" horiz-adv-x="519" 
d="M454 167q-29 -90 -88.5 -136t-152.5 -46l-41 -41l2 -2q12 3 16.5 3.5t19.5 0.5q33 0 53.5 -17t20.5 -52q0 -38 -33 -59.5t-74 -21.5q-49 0 -96 22l14 29q24 -10 39.5 -13.5t38.5 -3.5q24 0 40 9t16 32q0 20 -15.5 30.5t-38.5 10.5q-21 0 -39 -9l-16 18l58 67
q-79 10 -121.5 66t-42.5 144q0 131 76.5 232t203.5 101q87 0 140 -44.5t53 -131.5h-63q0 57 -34 90t-90 33q-106 0 -164.5 -84t-58.5 -196q0 -72 36.5 -116t107.5 -44q61 0 105 35t65 94h63z" />
    <glyph glyph-name="egrave" unicode="&#xe8;" horiz-adv-x="519" 
d="M80 241l-3 -40q0 -73 38 -118t112 -45q60 0 105.5 35.5t63.5 92.5h63q-26 -88 -84.5 -134.5t-150.5 -46.5q-101 0 -155.5 58.5t-54.5 160.5q0 131 76 229t203 98q92 0 144 -55t52 -146q0 -21 -1 -43.5t-4 -45.5h-404zM425 294l1 40q0 64 -38 104t-103 40
q-74 0 -126.5 -53.5t-70.5 -130.5h337zM278 729l82 -144h-50l-106 144h74z" />
    <glyph glyph-name="eacute" unicode="&#xe9;" horiz-adv-x="519" 
d="M80 241l-3 -40q0 -73 38 -118t112 -45q60 0 105.5 35.5t63.5 92.5h63q-26 -88 -84.5 -134.5t-150.5 -46.5q-101 0 -155.5 58.5t-54.5 160.5q0 131 76 229t203 98q92 0 144 -55t52 -146q0 -21 -1 -43.5t-4 -45.5h-404zM425 294l1 40q0 64 -38 104t-103 40
q-74 0 -126.5 -53.5t-70.5 -130.5h337zM367 729h81l-144 -144h-53z" />
    <glyph glyph-name="ecircumflex" unicode="&#xea;" horiz-adv-x="519" 
d="M80 241l-3 -40q0 -73 38 -118t112 -45q60 0 105.5 35.5t63.5 92.5h63q-26 -88 -84.5 -134.5t-150.5 -46.5q-101 0 -155.5 58.5t-54.5 160.5q0 131 76 229t203 98q92 0 144 -55t52 -146q0 -21 -1 -43.5t-4 -45.5h-404zM425 294l1 40q0 64 -38 104t-103 40
q-74 0 -126.5 -53.5t-70.5 -130.5h337zM225 585h-61l136 144h63l86 -144h-57l-66 106z" />
    <glyph glyph-name="edieresis" unicode="&#xeb;" horiz-adv-x="519" 
d="M80 241l-3 -40q0 -73 38 -118t112 -45q60 0 105.5 35.5t63.5 92.5h63q-26 -88 -84.5 -134.5t-150.5 -46.5q-101 0 -155.5 58.5t-54.5 160.5q0 131 76 229t203 98q92 0 144 -55t52 -146q0 -21 -1 -43.5t-4 -45.5h-404zM425 294l1 40q0 64 -38 104t-103 40
q-74 0 -126.5 -53.5t-70.5 -130.5h337zM382 703h64l-20 -102h-63zM223 703h64l-20 -102h-63z" />
    <glyph glyph-name="igrave" unicode="&#xec;" horiz-adv-x="185" 
d="M-11 0l111 516h63l-111 -516h-63zM141 729l82 -144h-50l-106 144h74z" />
    <glyph glyph-name="iacute" unicode="&#xed;" horiz-adv-x="185" 
d="M-11 0l111 516h63l-111 -516h-63zM200 729h81l-144 -144h-53z" />
    <glyph glyph-name="icircumflex" unicode="&#xee;" horiz-adv-x="185" 
d="M-11 0l111 516h63l-111 -516h-63zM58 585h-61l136 144h63l86 -144h-57l-66 106z" />
    <glyph glyph-name="idieresis" unicode="&#xef;" horiz-adv-x="185" 
d="M-11 0l111 516h63l-111 -516h-63zM215 703h64l-20 -102h-63zM56 703h64l-20 -102h-63z" />
    <glyph glyph-name="ntilde" unicode="&#xf1;" horiz-adv-x="537" 
d="M100 516h58l-18 -94q32 48 81.5 78.5t104.5 30.5q72 0 114 -33.5t42 -105.5q0 -23 -8 -61l-71 -331h-63l72 333q7 28 7 52q0 48 -30.5 70.5t-77.5 22.5q-70 0 -125.5 -57.5t-76.5 -155.5l-57 -265h-63zM490 701q-5 -21 -11 -36.5t-18 -31t-26.5 -24.5t-33.5 -9t-32.5 5.5
t-37 18.5t-41 22.5t-29.5 9.5q-17 0 -30.5 -18t-17.5 -38h-41q12 44 33.5 72.5t59.5 28.5q17 0 32.5 -6.5t40 -21.5t38 -21.5t29.5 -6.5q14 0 27 19t18 37h40z" />
    <glyph glyph-name="ograve" unicode="&#xf2;" 
d="M506 329q0 -141 -75 -242.5t-211 -101.5q-98 0 -152 58t-54 157q0 135 78 233t210 98q92 0 148 -54t56 -148zM443 316q0 74 -39 118t-113 44q-97 0 -155.5 -85t-58.5 -187q0 -77 39.5 -122.5t115.5 -45.5q96 0 153.5 88.5t57.5 189.5zM297 729l82 -144h-50l-106 144h74z
" />
    <glyph glyph-name="oacute" unicode="&#xf3;" 
d="M506 329q0 -141 -75 -242.5t-211 -101.5q-98 0 -152 58t-54 157q0 135 78 233t210 98q92 0 148 -54t56 -148zM443 316q0 74 -39 118t-113 44q-97 0 -155.5 -85t-58.5 -187q0 -77 39.5 -122.5t115.5 -45.5q96 0 153.5 88.5t57.5 189.5zM386 729h81l-144 -144h-53z" />
    <glyph glyph-name="ocircumflex" unicode="&#xf4;" 
d="M506 329q0 -141 -75 -242.5t-211 -101.5q-98 0 -152 58t-54 157q0 135 78 233t210 98q92 0 148 -54t56 -148zM443 316q0 74 -39 118t-113 44q-97 0 -155.5 -85t-58.5 -187q0 -77 39.5 -122.5t115.5 -45.5q96 0 153.5 88.5t57.5 189.5zM244 585h-61l136 144h63l86 -144
h-57l-66 106z" />
    <glyph glyph-name="otilde" unicode="&#xf5;" 
d="M506 329q0 -141 -75 -242.5t-211 -101.5q-98 0 -152 58t-54 157q0 135 78 233t210 98q92 0 148 -54t56 -148zM443 316q0 74 -39 118t-113 44q-97 0 -155.5 -85t-58.5 -187q0 -77 39.5 -122.5t115.5 -45.5q96 0 153.5 88.5t57.5 189.5zM500 701q-5 -21 -11 -36.5t-18 -31
t-26.5 -24.5t-33.5 -9t-32.5 5.5t-37 18.5t-41 22.5t-29.5 9.5q-17 0 -30.5 -18t-17.5 -38h-41q12 44 33.5 72.5t59.5 28.5q17 0 32.5 -6.5t40 -21.5t38 -21.5t29.5 -6.5q14 0 27 19t18 37h40z" />
    <glyph glyph-name="odieresis" unicode="&#xf6;" 
d="M506 329q0 -141 -75 -242.5t-211 -101.5q-98 0 -152 58t-54 157q0 135 78 233t210 98q92 0 148 -54t56 -148zM443 316q0 74 -39 118t-113 44q-97 0 -155.5 -85t-58.5 -187q0 -77 39.5 -122.5t115.5 -45.5q96 0 153.5 88.5t57.5 189.5zM401 703h64l-20 -102h-63zM242 703
h64l-20 -102h-63z" />
    <glyph glyph-name="divide" unicode="&#xf7;" horiz-adv-x="600" 
d="M49 225v53h503v-53h-503zM300 509q23 0 39.5 -16.5t16.5 -39.5q0 -21 -16.5 -38.5t-38.5 -17.5q-23 0 -40 16t-17 40t16 40t40 16zM300 106q23 0 39.5 -16.5t16.5 -39.5q0 -21 -16.5 -38.5t-38.5 -17.5q-23 0 -40 16t-17 40t16 40t40 16z" />
    <glyph glyph-name="oslash" unicode="&#xf8;" 
d="M114 87q19 -23 48.5 -36t69.5 -13q96 0 153.5 88.5t57.5 189.5q0 47 -17 84zM512 530l22 -21l-60 -61q32 -50 32 -119q0 -141 -75 -242.5t-211 -101.5q-47 0 -85 14.5t-65 42.5l-64 -64l-20 22l65 65q-37 56 -37 135q0 135 78 233t210 98q96 0 152 -59zM409 427
q-40 51 -118 51q-97 0 -155.5 -85t-58.5 -187q0 -57 20 -94z" />
    <glyph glyph-name="ugrave" unicode="&#xf9;" horiz-adv-x="537" 
d="M402 0h-58l18 94q-32 -48 -81.5 -78.5t-104.5 -30.5q-72 0 -114 33.5t-42 105.5q0 23 8 61l71 331h63l-72 -333q-7 -28 -7 -52q0 -48 30.5 -70.5t77.5 -22.5q70 0 125.5 57.5t76.5 155.5l57 265h63zM287 729l82 -144h-50l-106 144h74z" />
    <glyph glyph-name="uacute" unicode="&#xfa;" horiz-adv-x="537" 
d="M402 0h-58l18 94q-32 -48 -81.5 -78.5t-104.5 -30.5q-72 0 -114 33.5t-42 105.5q0 23 8 61l71 331h63l-72 -333q-7 -28 -7 -52q0 -48 30.5 -70.5t77.5 -22.5q70 0 125.5 57.5t76.5 155.5l57 265h63zM376 729h81l-144 -144h-53z" />
    <glyph glyph-name="ucircumflex" unicode="&#xfb;" horiz-adv-x="537" 
d="M402 0h-58l18 94q-32 -48 -81.5 -78.5t-104.5 -30.5q-72 0 -114 33.5t-42 105.5q0 23 8 61l71 331h63l-72 -333q-7 -28 -7 -52q0 -48 30.5 -70.5t77.5 -22.5q70 0 125.5 57.5t76.5 155.5l57 265h63zM224 585h-61l136 144h63l86 -144h-57l-66 106z" />
    <glyph glyph-name="udieresis" unicode="&#xfc;" horiz-adv-x="537" 
d="M402 0h-58l18 94q-32 -48 -81.5 -78.5t-104.5 -30.5q-72 0 -114 33.5t-42 105.5q0 23 8 61l71 331h63l-72 -333q-7 -28 -7 -52q0 -48 30.5 -70.5t77.5 -22.5q70 0 125.5 57.5t76.5 155.5l57 265h63zM381 703h64l-20 -102h-63zM222 703h64l-20 -102h-63z" />
    <glyph glyph-name="ydieresis" unicode="&#xff;" horiz-adv-x="463" 
d="M-43 -135l54 -3q26 0 46.5 16t34.5 40l47 82l-95 516h66l74 -438l240 438h68l-367 -638q-39 -69 -125 -69q-10 0 -30 2.5t-25 2.5zM354 703h64l-20 -102h-63zM195 703h64l-20 -102h-63z" />
    <glyph glyph-name="dotlessi" unicode="&#x131;" horiz-adv-x="185" 
d="M-11 0l111 516h63l-111 -516h-63z" />
    <glyph glyph-name="OE" unicode="&#x152;" horiz-adv-x="1037" 
d="M607 513l4 28q0 60 -60 95t-132 35q-138 0 -221.5 -114t-83.5 -261q0 -109 54 -181t160 -72q79 0 139 45.5t76 121.5zM652 398h350l-13 -58h-350l-59 -282h389l-13 -58h-455l14 64l-2 2q-30 -41 -81 -61t-107 -20q-139 0 -209 85.5t-70 227.5q0 171 104 301t275 130
q65 0 121.5 -25t89.5 -78l19 88h444l-13 -58h-380z" />
    <glyph glyph-name="oe" unicode="&#x153;" horiz-adv-x="907" 
d="M471 241q-4 -12 -6 -31t-2 -37q0 -62 39.5 -98.5t102.5 -36.5t107 33.5t62 94.5h63q-27 -84 -88 -132.5t-148 -48.5q-72 0 -119 32.5t-63 101.5q-29 -61 -83.5 -97.5t-121.5 -36.5q-92 0 -142 56t-50 152q0 132 77.5 235t204.5 103q65 0 111.5 -34t54.5 -97
q33 62 89 96.5t126 34.5q93 0 138.5 -58.5t45.5 -150.5q0 -20 -2.5 -36t-8.5 -45h-387zM85 195q0 -70 34 -113.5t102 -43.5q104 0 154.5 97t50.5 211q0 60 -35 96t-96 36q-98 0 -154 -89.5t-56 -193.5zM803 294l3 44q0 62 -34.5 101t-101.5 39q-77 0 -124 -50.5t-65 -133.5
h322z" />
    <glyph glyph-name="Ydieresis" unicode="&#x178;" horiz-adv-x="574" 
d="M598 714h83l-358 -426l-63 -288h-69l65 295l-190 419h72l161 -362zM410 881h64l-20 -102h-63zM251 881h64l-20 -102h-63z" />
    <glyph glyph-name="florin" unicode="&#x192;" 
d="M154 439h100l34 125q18 69 55 109.5t105 40.5q17 0 34 -1t34 -4l-14 -52q-11 1 -20.5 2.5t-22.5 1.5q-44 0 -69 -24t-38 -73l-34 -125h118l-14 -53h-119l-117 -429q-17 -61 -52.5 -95.5t-96.5 -34.5q-31 0 -56 4l14 53q9 -1 18 -2.5t21 -1.5q32 0 54 18.5t39 77.5
l112 410h-99z" />
    <glyph glyph-name="hungarumlaut" unicode="&#x2ba;" horiz-adv-x="185" 
d="M128 729h81l-144 -144h-53zM276 729h81l-144 -144h-53z" />
    <glyph glyph-name="caron" unicode="&#x2c7;" horiz-adv-x="185" 
d="M255 729h61l-136 -144h-63l-86 144h57l66 -109z" />
    <glyph glyph-name="macron" unicode="&#x2c9;" horiz-adv-x="185" 
d="M28 627l8 45h256l-8 -45h-256z" />
    <glyph glyph-name="breve" unicode="&#x2d8;" horiz-adv-x="185" 
d="M64 726q0 -41 24 -63t66 -22q90 0 118 85h37q-10 -58 -54 -94t-104 -36q-58 0 -91.5 35.5t-33.5 94.5h38z" />
    <glyph glyph-name="dotaccent" unicode="&#x2d9;" horiz-adv-x="185" 
d="M136 703h64l-20 -102h-63z" />
    <glyph glyph-name="ring" unicode="&#x2da;" horiz-adv-x="185" 
d="M225 674q0 25 -20 45t-46 20t-45.5 -19.5t-19.5 -45.5q0 -27 19.5 -46.5t45.5 -19.5t46 20t20 46zM60 674q0 40 29.5 69.5t69.5 29.5t70 -29t30 -70q0 -42 -29 -71t-71 -29q-41 0 -70 29t-29 71z" />
    <glyph glyph-name="ogonek" unicode="&#x2db;" horiz-adv-x="185" 
d="M175 0q-57 -38 -85.5 -72.5t-28.5 -59.5q0 -14 5.5 -20.5t19.5 -6.5q21 0 37.5 12t34.5 33l29 -25q-47 -65 -114 -65q-41 0 -60.5 16t-19.5 40q0 48 36.5 83.5t87.5 64.5h58z" />
    <glyph glyph-name="circumflex" unicode="&#x302;" horiz-adv-x="185" 
d="M58 585h-61l136 144h63l86 -144h-57l-66 106z" />
    <glyph glyph-name="tilde" unicode="&#x303;" horiz-adv-x="185" 
d="M314 701q-5 -21 -11 -36.5t-18 -31t-26.5 -24.5t-33.5 -9t-32.5 5.5t-37 18.5t-41 22.5t-29.5 9.5q-17 0 -30.5 -18t-17.5 -38h-41q12 44 33.5 72.5t59.5 28.5q17 0 32.5 -6.5t40 -21.5t38 -21.5t29.5 -6.5q14 0 27 19t18 37h40z" />
    <glyph glyph-name="summation" unicode="&#x3a3;" horiz-adv-x="713" 
d="M618 643l15 -129h-44q-32 105 -85 144t-169 39h-132l315 -431l-344 -394h187q122 0 172.5 31.5t82.5 116.5h45l-30 -130l-2 -7q-23 -99 -111 -99h-482l389 446l-375 514h460q65 0 82 -15q17 -13 26 -86z" />
    <glyph glyph-name="Omega" unicode="&#x3a9;" horiz-adv-x="768" 
d="M593 90q48 0 68 19t20 67h23v-176h-272v180q77 15 122.5 76.5t45.5 151.5q0 106 -59 168.5t-157 62.5t-157 -62.5t-59 -168.5q0 -90 44.5 -151t123.5 -77v-180h-272v176h23q0 -48 19 -67t69 -19h123v59q-118 21 -183 89t-65 170q0 121 92.5 194t241.5 73t241.5 -73.5
t92.5 -193.5q0 -100 -64 -168t-184 -91v-59h123z" />
    <glyph glyph-name="pi" unicode="&#x3c0;" horiz-adv-x="549" 
d="M404 373l-1 -24l-3 -150v-40q0 -84 8.5 -105t30.5 -21q28 0 41 29q17 31 17 89h25v-5q0 -80 -26 -118t-80 -38q-56 0 -79.5 40t-23.5 164l1 78l3 104l-50 1l-77 2q0 -234 -23 -311.5t-80 -77.5q-35 0 -52.5 29t-17.5 86v19h24q0 -27 9.5 -39.5t27.5 -12.5q42 0 54.5 47
t18 110.5t5.5 149.5h-22q-38 0 -59.5 -13.5t-27.5 -39.5h-23q0 34 10 57.5t36.5 44.5t112.5 21l102 -3l152 -3q34 0 49.5 7t16.5 21l23 1q0 -53 -23.5 -76.5t-74.5 -23.5h-14z" />
    <glyph glyph-name="endash" unicode="&#x2013;" horiz-adv-x="500" 
d="M-24 246l12 58h500l-12 -58h-500z" />
    <glyph glyph-name="emdash" unicode="&#x2014;" horiz-adv-x="1000" 
d="M976 246h-1000l12 58h1000z" />
    <glyph glyph-name="quoteleft" unicode="&#x2018;" horiz-adv-x="278" 
d="M263 674q-32 -10 -45 -32t-24 -65h42l-24 -105h-84l33 139q11 47 35 68.5t75 34.5z" />
    <glyph glyph-name="quoteright" unicode="&#x2019;" horiz-adv-x="278" 
d="M118 511q32 10 45 32t24 65h-42l24 106h84l-33 -140q-11 -47 -35 -68.5t-75 -34.5z" />
    <glyph glyph-name="quotesinglbase" unicode="&#x201a;" horiz-adv-x="278" 
d="M-4 -97q32 10 45 32t24 65h-42l24 106h84l-33 -140q-11 -47 -35 -68.5t-75 -34.5z" />
    <glyph glyph-name="quotedblleft" unicode="&#x201c;" horiz-adv-x="370" 
d="M230 674q-32 -10 -45 -32t-24 -65h42l-24 -105h-84l33 139q11 47 35 68.5t75 34.5zM383 674q-32 -10 -45 -32t-24 -65h42l-24 -105h-84l33 139q11 47 35 68.5t75 34.5z" />
    <glyph glyph-name="quotedblright" unicode="&#x201d;" horiz-adv-x="370" 
d="M75 511q32 10 45 32t24 65h-42l24 106h84l-33 -140q-11 -47 -35 -68.5t-75 -34.5zM228 511q32 10 45 32t24 65h-42l24 106h84l-33 -140q-11 -47 -35 -68.5t-75 -34.5z" />
    <glyph glyph-name="quotedblbase" unicode="&#x201e;" horiz-adv-x="370" 
d="M-27 -97q32 10 45 32t24 65h-42l24 106h84l-33 -140q-11 -47 -35 -68.5t-75 -34.5zM126 -97q32 10 45 32t24 65h-42l24 106h84l-33 -140q-11 -47 -35 -68.5t-75 -34.5z" />
    <glyph glyph-name="dagger" unicode="&#x2020;" 
d="M205 -149h-63l125 589h-200l12 53h200l47 221h63l-47 -221h197l-11 -53h-198z" />
    <glyph glyph-name="daggerdbl" unicode="&#x2021;" 
d="M-13 47l12 53h198l77 363h-199l11 53h200l42 198h63l-42 -198h196l-10 -53h-198l-77 -363h197l-10 -53h-198l-42 -196h-63l42 196h-199z" />
    <glyph glyph-name="bullet" unicode="&#x2022;" horiz-adv-x="500" 
d="M250 535q74 0 126.5 -51.5t52.5 -126.5t-52 -127t-127 -52q-74 0 -126 52t-52 127q0 74 52 126t126 52z" />
    <glyph glyph-name="ellipsis" unicode="&#x2026;" horiz-adv-x="1000" 
d="M386 0l23 106h85l-24 -106h-84zM52 0l23 106h85l-24 -106h-84zM720 0l23 106h85l-24 -106h-84z" />
    <glyph glyph-name="perthousand" unicode="&#x2030;" horiz-adv-x="1056" 
d="M708 118q0 83 46 144t128 61q61 0 93.5 -36.5t32.5 -98.5q0 -77 -46.5 -140t-122.5 -63q-131 0 -131 133zM955 196q0 82 -82 82q-56 0 -84 -53.5t-28 -115.5q0 -35 20 -57t58 -22q57 0 86.5 52.5t29.5 113.5zM355 118q0 83 46 144t128 61q61 0 93.5 -36.5t32.5 -98.5
q0 -77 -46.5 -140t-122.5 -63q-131 0 -131 133zM602 196q0 82 -82 82q-56 0 -84 -53.5t-28 -115.5q0 -35 20 -57t58 -22q57 0 86.5 52.5t29.5 113.5zM313 579q0 82 -82 82q-56 0 -84 -53.5t-28 -115.5q0 -35 20 -57t58 -22q57 0 86.5 52.5t29.5 113.5zM618 723h55l-571 -755
h-54zM66 501q0 83 46 144t128 61q61 0 93.5 -36.5t32.5 -98.5q0 -77 -46.5 -140t-122.5 -63q-131 0 -131 133z" />
    <glyph glyph-name="guilsinglleft" unicode="&#x2039;" horiz-adv-x="259" 
d="M51 257l15 64l159 113l-15 -68l-116 -84l75 -102l-12 -63z" />
    <glyph glyph-name="guilsinglright" unicode="&#x203a;" horiz-adv-x="259" 
d="M184 294l-15 -64l-159 -113l15 68l116 84l-75 102l12 63z" />
    <glyph glyph-name="trademark" unicode="&#x2122;" horiz-adv-x="990" 
d="M216 302v367h-134v45h321v-45h-134v-367h-53zM476 302v412h85l133 -334l129 334h85v-412h-53v364l-148 -364h-30l-146 364l-2 -364h-53z" />
    <glyph glyph-name="partialdiff" unicode="&#x2202;" horiz-adv-x="494" 
d="M256 349q-52 0 -86 -60t-34 -161q0 -57 21.5 -88t62.5 -31q53 0 87 62t34 153q0 58 -21.5 91.5t-63.5 33.5zM358 287q4 14 6.5 28t2.5 31l3 89q0 85 -15.5 126t-47.5 41q-18 0 -50 -35t-56 -35q-16 0 -25.5 7.5t-11.5 24.5q0 29 30.5 50t71.5 21q77 0 111.5 -54
t46.5 -103t12 -111q0 -163 -64.5 -271.5t-157.5 -108.5q-68 0 -110 51t-42 137q0 82 53 143.5t125 61.5q44 0 72.5 -22t45.5 -71z" />
    <glyph glyph-name="Delta" unicode="&#x2206;" horiz-adv-x="612" 
d="M92 45h373l-186 459zM595 0h-574l276 672h22z" />
    <glyph glyph-name="product" unicode="&#x220f;" horiz-adv-x="823" 
d="M118 -176v880h-88v40h767v-40h-88v-880h88v-40h-264v40h84v880h-407v-880h84v-40h-264v40h88z" />
    <glyph glyph-name="fraction" unicode="&#x2215;" horiz-adv-x="167" 
d="M279 725h53l-444 -759h-53z" />
    <glyph glyph-name="periodcentered" unicode="&#x2219;" horiz-adv-x="278" 
d="M127 368q23 0 39.5 -16.5t16.5 -39.5q0 -21 -16.5 -38.5t-38.5 -17.5q-23 0 -40 16t-17 40t16 40t40 16z" />
    <glyph glyph-name="radical" unicode="&#x221a;" horiz-adv-x="549" 
d="M594 764h-57l-290 -784h-32l-156 431l-61 -22l-12 39l138 48l125 -346l252 681h93v-47z" />
    <glyph glyph-name="infinity" unicode="&#x221e;" horiz-adv-x="713" 
d="M383 271q23 -45 58 -70q35 -23 77 -23q52 0 84.5 35t32.5 90q0 56 -30 89.5t-80 33.5q-37 0 -71 -36t-71 -119zM330 327q-26 46 -59 69.5t-76 23.5q-51 0 -84 -35t-33 -90q0 -54 29.5 -88.5t76.5 -34.5q40 0 71.5 31.5t74.5 123.5zM366 238q-33 -62 -71.5 -93t-85.5 -31
q-66 0 -111 52.5t-45 131.5q0 83 41 134.5t105 51.5q47 0 82.5 -29.5t65.5 -94.5q31 62 69.5 93t87.5 31q63 0 109 -53t46 -131q0 -83 -40.5 -134.5t-104.5 -51.5q-46 0 -84 30q-36 31 -64 94z" />
    <glyph glyph-name="integral" unicode="&#x222b;" horiz-adv-x="274" 
d="M283 757q36 0 58.5 -18.5t22.5 -48.5q0 -20 -13 -34t-36 -14q-29 0 -44 32t-29 32q-57 0 -57 -310l-3 -98q0 -63 -4.5 -120t-14 -128t-31 -120t-60 -80t-81.5 -31q-35 0 -58 18.5t-23 48.5q0 22 12.5 34.5t36.5 12.5q29 0 44 -31t30 -32q57 0 57 324l2 84q0 60 4 116
t13.5 127.5t31.5 122.5t59.5 82t82.5 31z" />
    <glyph glyph-name="approxequal" unicode="&#x2248;" horiz-adv-x="549" 
d="M15 100v77q49 31 87 44.5t74 13.5q44 0 115 -24t99 -24t61.5 15t82.5 52v-78q-42 -28 -76.5 -41.5t-72.5 -13.5q-32 0 -104 23.5t-116 23.5q-28 0 -53.5 -11t-48 -24.5t-48.5 -32.5zM15 219v77q23 14 43.5 25t50.5 21.5t66 10.5q42 0 114.5 -23.5t100.5 -23.5
q27 0 60 14.5t84 51.5v-77q-18 -12 -41 -24t-49 -21.5t-59 -9.5t-104.5 23.5t-110.5 23.5q-35 0 -66 -13.5t-89 -54.5z" />
    <glyph glyph-name="notequal" unicode="&#x2260;" horiz-adv-x="549" 
d="M413 336h91v-64h-149l-73 -72h222v-64h-281l-118 -118l-43 44l74 74h-91v64h150l73 72h-223v64h281l118 118l44 -44z" />
    <glyph glyph-name="lessequal" unicode="&#x2264;" horiz-adv-x="549" 
d="M506 18h-463v68h463v-68zM162 280l344 -107v-70l-462 145v65l462 145v-70z" />
    <glyph glyph-name="greaterequal" unicode="&#x2265;" horiz-adv-x="549" 
d="M506 18h-463v68h463v-68zM506 248l-463 -145v70l344 107l-344 108v70l463 -145v-65z" />
    <glyph glyph-name="lozenge" unicode="&#x25ca;" horiz-adv-x="494" 
d="M247 688l-188 -399l188 -403l188 403zM247 807l244 -518l-244 -522l-244 522z" />
    <glyph glyph-name="apple" unicode="&#xf000;" horiz-adv-x="790" 
d="M408 594l-1 7v11q0 61 46 112t116 64v-12l1 -18q0 -64 -50.5 -114.5t-99.5 -50.5h-4zM735 197q-56 -121 -101 -167.5t-99 -46.5q-25 0 -64 16t-60 16q-23 0 -64 -16t-62 -16q-30 0 -63 21q-13 10 -30.5 27.5t-48.5 60t-59.5 120.5t-28.5 148q0 107 61.5 174.5t157.5 67.5
q16 0 35.5 -4t51.5 -17t49 -13q18 0 61 17t73 17q55 0 97.5 -19.5t77.5 -60.5q-49 -31 -73.5 -70.5t-24.5 -89.5q0 -54 30 -98t84 -67z" />
    <glyph glyph-name="fi" unicode="&#xf001;" horiz-adv-x="444" 
d="M359 516h63l-111 -516h-63zM402 714h63l-22 -101h-63zM284 463h-101l-102 -463h-63l102 463h-90l12 53h89l16 75q13 61 44.5 92t93.5 31q22 0 35.5 -1t29.5 -6l-11 -52q-20 3 -39 6q-43 0 -62.5 -16.5t-28.5 -56.5l-15 -72h102z" />
    <glyph glyph-name="fl" unicode="&#xf002;" horiz-adv-x="444" 
d="M284 463h-101l-102 -463h-63l102 463h-90l12 53h89l16 75q13 61 44.5 92t93.5 31q22 0 35.5 -1t29.5 -6l-11 -52q-20 3 -39 6q-43 0 -62.5 -16.5t-28.5 -56.5l-15 -72h102zM402 714h63l-154 -714h-63z" />
    <glyph glyph-name="Lslash" horiz-adv-x="537" 
d="M159 714h68l-77 -359l252 153l-9 -54l-255 -155l-52 -241h395l-14 -58h-462l54 251l-94 -57l12 56l94 57z" />
    <glyph glyph-name="lslash" horiz-adv-x="185" 
d="M143 714h63l-58 -268l78 56l-11 -55l-79 -56l-84 -391h-63l73 338l-75 -53l12 55l75 53z" />
    <glyph glyph-name="Scaron" horiz-adv-x="630" 
d="M539 506q0 90 -46.5 127.5t-142.5 37.5q-74 0 -128 -36t-54 -107q0 -40 23.5 -68t96.5 -50l76 -23q96 -29 144 -65t48 -117q0 -77 -62 -148.5t-214 -71.5q-124 0 -196.5 62.5t-72.5 187.5h68q0 -101 52 -146.5t154 -45.5q79 0 141 39t62 114q0 66 -42.5 90.5t-134.5 51.5
l-70 21q-67 19 -104 59t-37 107q0 100 74.5 152t178.5 52q117 0 185.5 -52.5t68.5 -170.5h-68zM478 907h61l-136 -144h-63l-86 144h57l66 -109z" />
    <glyph glyph-name="scaron" horiz-adv-x="481" 
d="M62 168q0 -69 41.5 -99.5t104.5 -30.5q50 0 90 24.5t40 70.5q0 52 -40.5 72t-103.5 44.5t-98 53.5t-35 87q0 69 59 105t132 36q85 0 134.5 -40t49.5 -126h-63q0 57 -32.5 85t-88.5 28q-51 0 -89.5 -20t-38.5 -68q0 -33 27 -53t98 -48t111.5 -55.5t40.5 -90.5
q0 -80 -62 -119t-146 -39q-81 0 -137.5 46t-56.5 137h63zM393 729h61l-136 -144h-63l-86 144h57l66 -109z" />
    <glyph glyph-name="Zcaron" horiz-adv-x="574" 
d="M111 714h515l-12 -57l-571 -599h476l-13 -58h-556l13 60l569 596h-434zM450 907h61l-136 -144h-63l-86 144h57l66 -109z" />
    <glyph glyph-name="zcaron" horiz-adv-x="426" 
d="M55 516h388l-11 -50l-401 -413h331l-11 -53h-409l11 51l399 412h-308zM366 729h61l-136 -144h-63l-86 144h57l66 -109z" />
    <glyph glyph-name="brokenbar" horiz-adv-x="222" 
d="M85 260h53v-275h-53v275zM85 729h53v-275h-53v275z" />
    <glyph glyph-name="Eth" horiz-adv-x="685" 
d="M12 393h79l69 321h230q147 0 209.5 -74t62.5 -212q0 -179 -103.5 -303.5t-287.5 -124.5h-266l76 348h-79zM159 393h213l-10 -45h-213l-63 -290h172q167 0 251.5 110t84.5 273q0 215 -215 215h-163z" />
    <glyph glyph-name="glyph234" 
d="M77 196q0 -73 39 -115.5t116 -42.5q98 0 156 83.5t58 179.5q0 69 -39.5 110.5t-115.5 41.5q-97 0 -155.5 -81t-58.5 -176zM326 652q-37 34 -84 55l46 35q51 -25 90 -63l117 59l26 -31l-115 -58q52 -58 77.5 -135.5t25.5 -165.5q0 -152 -73 -257.5t-216 -105.5
q-98 0 -152 55t-54 150q0 128 78 222t210 94q43 0 80.5 -14t62.5 -52q-8 53 -30.5 100t-58.5 83l-108 -55l-26 31z" />
    <glyph glyph-name="Yacute" horiz-adv-x="574" 
d="M598 714h83l-358 -426l-63 -288h-69l65 295l-190 419h72l161 -362zM395 907h81l-144 -144h-53z" />
    <glyph glyph-name="yacute" horiz-adv-x="463" 
d="M-43 -135l54 -3q26 0 46.5 16t34.5 40l47 82l-95 516h66l74 -438l240 438h68l-367 -638q-39 -69 -125 -69q-10 0 -30 2.5t-25 2.5zM339 729h81l-144 -144h-53z" />
    <glyph glyph-name="Thorn" horiz-adv-x="630" 
d="M159 714h68l-26 -117h220q83 0 136.5 -47.5t53.5 -128.5q0 -109 -68 -170.5t-178 -61.5h-252l-40 -189h-68zM126 247h241q77 0 126.5 44t49.5 120q0 67 -38 97.5t-107 30.5h-209z" />
    <glyph glyph-name="thorn" horiz-adv-x="574" 
d="M102 187q0 -69 38 -109t106 -40q101 0 160.5 89.5t59.5 196.5q0 70 -35 112t-104 42q-102 0 -163.5 -91.5t-61.5 -199.5zM149 714h63l-62 -289q31 53 74 79.5t109 26.5q96 0 146 -57t50 -154q0 -127 -79 -231t-203 -104q-66 0 -110.5 28.5t-54.5 89.5l-65 -294h-63z" />
    <glyph glyph-name="minus" horiz-adv-x="600" 
d="M552 225h-503v53h503v-53z" />
    <glyph glyph-name="multiply" horiz-adv-x="600" 
d="M74 440l37 37l189 -189l189 189l37 -37l-189 -189l189 -189l-37 -37l-189 188l-189 -188l-37 37l188 189z" />
    <glyph glyph-name="onesuperior" horiz-adv-x="333" 
d="M117 622q47 6 83 22.5t60 52.5h38l-97 -423h-48l79 343q-25 -15 -62.5 -24.5t-61.5 -9.5z" />
    <glyph glyph-name="twosuperior" horiz-adv-x="333" 
d="M66 557q0 65 45 107t115 42q58 0 97 -29.5t39 -83.5q0 -55 -33.5 -88.5t-92 -64.5t-110.5 -58q-55 -34 -60 -69h246l-7 -39h-294q0 61 41 99t116.5 76t111 67.5t35.5 77.5q0 35 -26.5 54t-65.5 19q-49 0 -79.5 -32.5t-30.5 -77.5h-47z" />
    <glyph glyph-name="threesuperior" horiz-adv-x="333" 
d="M73 570q12 66 50 101t105 35q59 0 96 -27.5t37 -81.5q0 -39 -27 -67t-68 -34q32 -9 49.5 -32.5t17.5 -56.5q0 -66 -49 -104t-123 -38q-75 0 -106 37.5t-31 110.5h41q0 -54 22 -81.5t76 -27.5q52 0 87.5 28.5t35.5 72.5q0 38 -28 55t-73 17h-22l7 39h26q53 0 85.5 16.5
t32.5 63.5q0 34 -25 52.5t-63 18.5q-47 0 -75.5 -26t-36.5 -71h-41z" />
    <glyph glyph-name="onehalf" horiz-adv-x="834" 
d="M574 725h53l-444 -759h-53zM92 622q47 6 83 22.5t60 52.5h38l-97 -423h-48l79 343q-25 -15 -62.5 -24.5t-61.5 -9.5zM503 283q0 65 45 107t115 42q58 0 97 -29.5t39 -83.5q0 -55 -33.5 -88.5t-92 -64.5t-110.5 -58q-55 -34 -60 -69h246l-7 -39h-294q0 61 41 99t116.5 76
t111 67.5t35.5 77.5q0 35 -26.5 54t-65.5 19q-49 0 -79.5 -32.5t-30.5 -77.5h-47z" />
    <glyph glyph-name="onequarter" horiz-adv-x="834" 
d="M598 725h53l-444 -759h-53zM117 622q47 6 83 22.5t60 52.5h38l-97 -423h-48l79 343q-25 -15 -62.5 -24.5t-61.5 -9.5zM727 420h45l-65 -282h63l-7 -39h-65l-23 -99h-47l23 99h-206l7 43zM502 138h157l49 210l-2 2z" />
    <glyph glyph-name="threequarters" horiz-adv-x="834" 
d="M73 570q12 66 50 101t105 35q59 0 96 -27.5t37 -81.5q0 -39 -27 -67t-68 -34q32 -9 49.5 -32.5t17.5 -56.5q0 -66 -49 -104t-123 -38q-75 0 -106 37.5t-31 110.5h41q0 -54 22 -81.5t76 -27.5q52 0 87.5 28.5t35.5 72.5q0 38 -28 55t-73 17h-22l7 39h26q53 0 85.5 16.5
t32.5 63.5q0 34 -25 52.5t-63 18.5q-47 0 -75.5 -26t-36.5 -71h-41zM633 725h53l-444 -759h-53zM727 420h45l-65 -282h63l-7 -39h-65l-23 -99h-47l23 99h-206l7 43zM502 138h157l49 210l-2 2z" />
  </font>
</defs>
</svg>
